<svg id="mpa-instagram" data-name="Capa 1" xmlns="http://www.w3.org/2000/svg" viewBox="0 0 36.15 36.15"><g id="Icon_feather-instagram" data-name="Icon feather-instagram"><path id="Trazado_506-2" data-name="Trazado 506-2" style="fill:none;stroke:currentColor;stroke-linecap:round;stroke-linejoin:round;stroke-width:4px;" d="M10,2H26.11a8,8,0,0,1,8,8h0V26.11a8,8,0,0,1-8,8H10a8,8,0,0,1-8-8H2V10a8,8,0,0,1,8-8Z"/><path id="Trazado_507" data-name="Trazado 507" style="fill:none;stroke:currentColor;stroke-linecap:round;stroke-linejoin:round;stroke-width:4px;" d="M24.51,17.06a6.43,6.43,0,1,1-7.3-5.42,6.58,6.58,0,0,1,1.88,0,6.43,6.43,0,0,1,5.41,5.42Z"/><path id="Trazado_508" data-name="Trazado 508" style="fill:none;stroke:currentColor;stroke-linecap:round;stroke-linejoin:round;stroke-width:4px;" d="M26.92,9.23h0"/></g></svg>