<svg id="mpa-comment" data-name="Capa 1" xmlns="http://www.w3.org/2000/svg" viewBox="0 0 26.29 23"><path id="Icon_awesome-comment-dots" data-name="Icon awesome-comment-dots" d="M13.14,0C5.88,0,0,4.78,0,10.68a9.46,9.46,0,0,0,2.93,6.71A13.09,13.09,0,0,1,.11,22.31a.4.4,0,0,0-.07.44A.4.4,0,0,0,.41,23a11.81,11.81,0,0,0,7.22-2.64,15.71,15.71,0,0,0,5.51,1c7.26,0,13.15-4.78,13.15-10.68S20.4,0,13.14,0ZM6.57,12.32a1.65,1.65,0,1,1,1.64-1.66v0h0a1.63,1.63,0,0,1-1.62,1.64h0Zm6.57,0a1.65,1.65,0,1,1,1.64-1.66v0h0a1.63,1.63,0,0,1-1.62,1.64h0Zm6.57,0a1.65,1.65,0,1,1,1.65-1.65h0a1.66,1.66,0,0,1-1.64,1.64Z" style="fill:#FFF"/></svg>