<svg class="dn" height="0" version="1.1" width="0" xmlns="http://www.w3.org/2000/svg"><defs><g id="bnd-logo"><path d="M14.8018 2H2.8541C1.92768 2 1.33445 2.93596 1.76795 3.71405L2.96368 5.86466H0.796482C0.659276 5.8647 0.524407 5.89841 0.404937 5.96253C0.285467 6.02665 0.185446 6.119 0.114562 6.23064C0.0436777 6.34228 0.0043325 6.46943 0.000337815 6.59976C-0.00365688 6.73009 0.0278339 6.8592 0.0917605 6.97457L3.93578 13.8888C4.00355 14.0104 4.10491 14.1121 4.22896 14.1831C4.35301 14.254 4.49507 14.2915 4.63987 14.2915C4.78466 14.2915 4.92672 14.254 5.05077 14.1831C5.17483 14.1121 5.27618 14.0104 5.34395 13.8888L6.38793 12.0211L7.69771 14.3775C8.15868 15.2063 9.40744 15.2078 9.87001 14.38L15.8585 3.67064C16.2818 2.91319 15.7043 2 14.8018 2ZM9.43491 6.57566L6.85274 11.1944C6.80761 11.2753 6.74016 11.3429 6.65762 11.3901C6.57508 11.4373 6.48058 11.4622 6.38426 11.4622C6.28794 11.4622 6.19344 11.4373 6.1109 11.3901C6.02836 11.3429 5.96091 11.2753 5.91578 11.1944L3.35853 6.59509C3.31587 6.51831 3.29482 6.43236 3.2974 6.34558C3.29998 6.25879 3.3261 6.17411 3.37325 6.09974C3.4204 6.02538 3.48696 5.96385 3.56649 5.92112C3.64601 5.87839 3.73581 5.85591 3.82717 5.85585H8.97937C9.06831 5.85591 9.15572 5.87782 9.23312 5.91945C9.31052 5.96108 9.37529 6.02102 9.42113 6.09345C9.46697 6.16588 9.49232 6.24834 9.49474 6.33283C9.49716 6.41732 9.47655 6.50097 9.43491 6.57566Z" fill="currentColor"/><path d="M14.8018 2H2.8541C1.92768 2 1.33445 2.93596 1.76795 3.71405L2.96368 5.86466H0.796482C0.659276 5.8647 0.524407 5.89841 0.404937 5.96253C0.285467 6.02665 0.185446 6.119 0.114562 6.23064C0.0436777 6.34228 0.0043325 6.46943 0.000337815 6.59976C-0.00365688 6.73009 0.0278339 6.8592 0.0917605 6.97457L3.93578 13.8888C4.00355 14.0104 4.10491 14.1121 4.22896 14.1831C4.35301 14.254 4.49507 14.2915 4.63987 14.2915C4.78466 14.2915 4.92672 14.254 5.05077 14.1831C5.17483 14.1121 5.27618 14.0104 5.34395 13.8888L6.38793 12.0211L7.69771 14.3775C8.15868 15.2063 9.40744 15.2078 9.87001 14.38L15.8585 3.67064C16.2818 2.91319 15.7043 2 14.8018 2ZM9.43491 6.57566L6.85274 11.1944C6.80761 11.2753 6.74016 11.3429 6.65762 11.3901C6.57508 11.4373 6.48058 11.4622 6.38426 11.4622C6.28794 11.4622 6.19344 11.4373 6.1109 11.3901C6.02836 11.3429 5.96091 11.2753 5.91578 11.1944L3.35853 6.59509C3.31587 6.51831 3.29482 6.43236 3.2974 6.34558C3.29998 6.25879 3.3261 6.17411 3.37325 6.09974C3.4204 6.02538 3.48696 5.96385 3.56649 5.92112C3.64601 5.87839 3.73581 5.85591 3.82717 5.85585H8.97937C9.06831 5.85591 9.15572 5.87782 9.23312 5.91945C9.31052 5.96108 9.37529 6.02102 9.42113 6.09345C9.46697 6.16588 9.49232 6.24834 9.49474 6.33283C9.49716 6.41732 9.47655 6.50097 9.43491 6.57566Z" fill="currentColor"/></g><g id="hpa-arrow-from-bottom"><path d="M7.00001 3.4V12H9.00001V3.4L13 7.4L14.4 6L8.70001 0.3C8.30001 -0.1 7.70001 -0.1 7.30001 0.3L1.60001 6L3.00001 7.4L7.00001 3.4Z" fill="currentColor"/><path d="M15 14H1V16H15V14Z" fill="currentColor"/></g><g id="hpa-arrow-to-bottom"><path d="M8.00001 12C8.30001 12 8.50001 11.9 8.70001 11.7L14.4 6L13 4.6L9.00001 8.6V0H7.00001V8.6L3.00001 4.6L1.60001 6L7.30001 11.7C7.50001 11.9 7.70001 12 8.00001 12Z" fill="currentColor"/><path d="M15 14H1V16H15V14Z" fill="currentColor"/></g><g id="hpa-arrow-back"><path d="M5.5 15.5002C5.75781 15.5002 5.92969 15.4169 6.10156 15.2502L11 10.5002L9.79687 9.33356L6.35938 12.6669L6.35938 0H4.64063L4.64062 12.6669L1.20312 9.33356L0 10.5002L4.89844 15.2502C5.07031 15.4169 5.24219 15.5002 5.5 15.5002Z" transform="translate(16.0002) rotate(90)" fill="currentColor"/></g><g id="hpa-calendar"><path d="M5.66667 7.2H4.11111V8.8H5.66667V7.2ZM8.77778 7.2H7.22222V8.8H8.77778V7.2ZM11.8889 7.2H10.3333V8.8H11.8889V7.2ZM13.4444 1.6H12.6667V0H11.1111V1.6H4.88889V0H3.33333V1.6H2.55556C1.69222 1.6 1.00778 2.32 1.00778 3.2L1 14.4C1 15.28 1.69222 16 2.55556 16H13.4444C14.3 16 15 15.28 15 14.4V3.2C15 2.32 14.3 1.6 13.4444 1.6ZM13.4444 14.4H2.55556V5.6H13.4444V14.4Z" fill="currentColor"/></g><svg id="hpa-cart" data-name="Capa 1" xmlns="http://www.w3.org/2000/svg" viewBox="0 0 16.4 18"><g id="Icon_feather-shopping-bag" data-name="Icon feather-shopping-bag"><path id="Trazado_858" data-name="Trazado 858" d="M3.4,1,1,4.2V15.4A1.6,1.6,0,0,0,2.6,17H13.8a1.6,1.6,0,0,0,1.6-1.6h0V4.2L13,1Z" transform="translate(0 0)" style="fill:none;stroke:currentColor;stroke-linecap:round;stroke-linejoin:round;stroke-width:2px"/><path id="Trazado_859" data-name="Trazado 859" d="M1,4.2H15.4" transform="translate(0 0)" style="fill:none;stroke:currentColor;stroke-linecap:round;stroke-linejoin:round;stroke-width:2px"/><path id="Trazado_860" data-name="Trazado 860" d="M11.54,7.33a3.34,3.34,0,0,1-6.68,0" transform="translate(0 0)" style="fill:none;stroke:currentColor;stroke-linecap:round;stroke-linejoin:round;stroke-width:2px"/></g></svg><g id="hpa-delete"><svg width="9" height="9" viewBox="0 0 9 9" fill="none" xmlns="http://www.w3.org/2000/svg"><line x1="0.353553" y1="0.646447" x2="8.35355" y2="8.64645" stroke="black"/><line x1="8.35355" y1="0.353553" x2="0.353554" y2="8.35355" stroke="black"/></svg></g><g id="mpa-play"><path d="M3.5241 0.937906C2.85783 0.527894 2 1.00724 2 1.78956V14.2104C2 14.9928 2.85783 15.4721 3.5241 15.0621L13.6161 8.85166C14.2506 8.46117 14.2506 7.53883 13.6161 7.14834L3.5241 0.937906Z" fill="currentColor"/></g><g id="mpa-pause"><rect width="6" height="16" fill="currentColor"/><rect x="10" width="6" height="16" fill="currentColor"/></g><g id="sti-volume-on"><path d="M0 5.2634V10.7366H3.55556L8 15.2976V0.702394L3.55556 5.2634H0ZM12 8C12 6.3854 11.0933 4.99886 9.77778 4.32383V11.667C11.0933 11.0011 12 9.6146 12 8ZM9.77778 0V1.87913C12.3467 2.66363 14.2222 5.10832 14.2222 8C14.2222 10.8917 12.3467 13.3364 9.77778 14.1209V16C13.3422 15.1699 16 11.9042 16 8C16 4.09578 13.3422 0.830103 9.77778 0V0Z" fill="currentColor"/></g><g id="sti-volume-off"><path d="M12 8C12 6.42667 11.0933 5.07556 9.77778 4.41778V6.38222L11.9556 8.56C11.9822 8.38222 12 8.19556 12 8V8ZM14.2222 8C14.2222 8.83556 14.0444 9.61778 13.7422 10.3467L15.0844 11.6889C15.6711 10.5867 16 9.33333 16 8C16 4.19556 13.3422 1.01333 9.77778 0.204444V2.03556C12.3467 2.8 14.2222 5.18222 14.2222 8ZM1.12889 0L0 1.12889L4.20444 5.33333H0V10.6667H3.55556L8 15.1111V9.12889L11.7778 12.9067C11.1822 13.3689 10.5156 13.7333 9.77778 13.9556V15.7867C11.0044 15.5111 12.1156 14.9422 13.0578 14.1778L14.8711 16L16 14.8711L8 6.87111L1.12889 0ZM8 0.888889L6.14222 2.74667L8 4.60444V0.888889Z" fill="currentColor"/></g><svg id="hpa-profile" data-name="Capa 1" xmlns="http://www.w3.org/2000/svg" viewBox="0 0 16.67 17.99"><g id="Icon_feather-user" data-name="Icon feather-user"><path id="Trazado_861" data-name="Trazado 861" d="M15.66,17V15A3.83,3.83,0,0,0,12,11H4.66A3.83,3.83,0,0,0,1,15v2" transform="translate(0 0)" style="fill:rgba(0,0,0,0);stroke:currentColor;stroke-linecap:round;stroke-linejoin:round;stroke-width:2px"/><path id="Trazado_862" data-name="Trazado 862" d="M12,4.67A3.67,3.67,0,1,1,8.33,1,3.66,3.66,0,0,1,12,4.67Z" transform="translate(0 0)" style="fill:rgba(0,0,0,0);stroke:currentColor;stroke-linecap:round;stroke-linejoin:round;stroke-width:2px"/></g></svg><g id="hpa-save"><path d="M11.7 0.3C11.5 0.1 11.3 0 11 0H10V3C10 3.6 9.6 4 9 4H4C3.4 4 3 3.6 3 3V0H1C0.4 0 0 0.4 0 1V15C0 15.6 0.4 16 1 16H15C15.6 16 16 15.6 16 15V5C16 4.7 15.9 4.5 15.7 4.3L11.7 0.3ZM13 14H3V11C3 10.4 3.4 10 4 10H12C12.6 10 13 10.4 13 11V14Z" fill="currentColor"/><path d="M9 0H7V3H9V0Z" fill="currentColor"/></g><g id="hpa-search"><path d="M15.707 13.293L13 10.586C13.63 9.536 14 8.311 14 7C14 3.14 10.859 0 7 0C3.141 0 0 3.14 0 7C0 10.86 3.141 14 7 14C8.312 14 9.536 13.631 10.586 13L13.293 15.707C13.488 15.902 13.744 16 14 16C14.256 16 14.512 15.902 14.707 15.707L15.707 14.707C16.098 14.316 16.098 13.684 15.707 13.293ZM7 12C4.239 12 2 9.761 2 7C2 4.239 4.239 2 7 2C9.761 2 12 4.239 12 7C12 9.761 9.761 12 7 12Z" fill="currentColor"/></g><g id="hpa-hamburguer-menu"><path fill="currentColor" d="M15,7H1C0.4,7,0,7.4,0,8s0.4,1,1,1h14c0.6,0,1-0.4,1-1S15.6,7,15,7z"/><path fill="currentColor" d="M15,1H1C0.4,1,0,1.4,0,2s0.4,1,1,1h14c0.6,0,1-0.4,1-1S15.6,1,15,1z"/><path fill="currentColor" d="M15,13H1c-0.6,0-1,0.4-1,1s0.4,1,1,1h14c0.6,0,1-0.4,1-1S15.6,13,15,13z"/></g><g id="hpa-location-marker"><path d="M19.9655 10.4828C19.9655 16.3448 10.4828 26 10.4828 26C10.4828 26 1 16.431 1 10.4828C1 4.44828 5.91379 1 10.4828 1C15.0517 1 19.9655 4.53448 19.9655 10.4828Z" stroke="currentColor" stroke-width="2" stroke-miterlimit="10" stroke-linecap="round" stroke-linejoin="round"/><path d="M10.4827 13.069C11.911 13.069 13.0689 11.9111 13.0689 10.4828C13.0689 9.05443 11.911 7.89655 10.4827 7.89655C9.05437 7.89655 7.89648 9.05443 7.89648 10.4828C7.89648 11.9111 9.05437 13.069 10.4827 13.069Z" stroke="currentColor" stroke-width="2" stroke-miterlimit="10" stroke-linecap="round" stroke-linejoin="round"/></g><g id="hpa-telemarketing"><path d="M14 10V7C14 3.68629 11.3137 1 8 1V1C4.68629 1 2 3.68629 2 7V10" stroke="currentColor" stroke-width="1.5"/><path d="M14 10V10C14 12.2091 12.2091 14 10 14H8" stroke="currentColor" stroke-width="1.5"/><rect y="7" width="3" height="5" rx="1" fill="currentColor"/><rect x="11" y="12" width="4" height="5" rx="2" transform="rotate(90 11 12)" fill="currentColor"/><rect x="13" y="7" width="3" height="5" rx="1" fill="currentColor"/></g><g id="mpa-globe"><path d="M8,0C3.6,0,0,3.6,0,8s3.6,8,8,8s8-3.6,8-8S12.4,0,8,0z M13.9,7H12c-0.1-1.5-0.4-2.9-0.8-4.1 C12.6,3.8,13.6,5.3,13.9,7z M8,14c-0.6,0-1.8-1.9-2-5H10C9.8,12.1,8.6,14,8,14z M6,7c0.2-3.1,1.3-5,2-5s1.8,1.9,2,5H6z M4.9,2.9 C4.4,4.1,4.1,5.5,4,7H2.1C2.4,5.3,3.4,3.8,4.9,2.9z M2.1,9H4c0.1,1.5,0.4,2.9,0.8,4.1C3.4,12.2,2.4,10.7,2.1,9z M11.1,13.1 c0.5-1.2,0.7-2.6,0.8-4.1h1.9C13.6,10.7,12.6,12.2,11.1,13.1z" fill="currentColor"/></g><g id="mpa-filter-settings"><path d="M4 5V1" stroke="#4F4F4F" stroke-miterlimit="10" stroke-linecap="round" stroke-linejoin="round"/><path d="M4 16V14" stroke="#4F4F4F" stroke-miterlimit="10" stroke-linecap="round" stroke-linejoin="round"/><path d="M13 12V16" stroke="#4F4F4F" stroke-miterlimit="10" stroke-linecap="round" stroke-linejoin="round"/><path d="M13 1V3" stroke="#4F4F4F" stroke-miterlimit="10" stroke-linecap="round" stroke-linejoin="round"/><path d="M4 14C5.65685 14 7 12.6569 7 11C7 9.34315 5.65685 8 4 8C2.34315 8 1 9.34315 1 11C1 12.6569 2.34315 14 4 14Z" stroke="#4F4F4F" stroke-miterlimit="10" stroke-linecap="round" stroke-linejoin="round"/><path d="M13 9C14.6569 9 16 7.65685 16 6C16 4.34315 14.6569 3 13 3C11.3431 3 10 4.34315 10 6C10 7.65685 11.3431 9 13 9Z" stroke="#4F4F4F" stroke-miterlimit="10" stroke-linecap="round" stroke-linejoin="round"/></g><g id="mpa-single-item"><path d="M10.2857 0H1.71429C0.685714 0 0 0.685714 0 1.71429V10.2857C0 11.3143 0.685714 12 1.71429 12H10.2857C11.3143 12 12 11.3143 12 10.2857V1.71429C12 0.685714 11.3143 0 10.2857 0Z" fill="currentColor"/><rect y="14" width="12" height="2" rx="1" fill="currentColor"/></g><g id="mpa-gallery"><path d="M6 0H1C0.4 0 0 0.4 0 1V6C0 6.6 0.4 7 1 7H6C6.6 7 7 6.6 7 6V1C7 0.4 6.6 0 6 0Z" fill="currentColor"/><path d="M15 0H10C9.4 0 9 0.4 9 1V6C9 6.6 9.4 7 10 7H15C15.6 7 16 6.6 16 6V1C16 0.4 15.6 0 15 0Z" fill="currentColor"/><path d="M6 9H1C0.4 9 0 9.4 0 10V15C0 15.6 0.4 16 1 16H6C6.6 16 7 15.6 7 15V10C7 9.4 6.6 9 6 9Z" fill="currentColor"/><path d="M15 9H10C9.4 9 9 9.4 9 10V15C9 15.6 9.4 16 10 16H15C15.6 16 16 15.6 16 15V10C16 9.4 15.6 9 15 9Z" fill="currentColor"/></g><g id="mpa-list-items"><path d="M6 0H1C0.4 0 0 0.4 0 1V6C0 6.6 0.4 7 1 7H6C6.6 7 7 6.6 7 6V1C7 0.4 6.6 0 6 0Z" fill="currentColor"/><rect x="9" width="7" height="3" rx="1" fill="currentColor"/><rect x="9" y="4" width="4" height="3" rx="1" fill="currentColor"/><rect x="9" y="9" width="7" height="3" rx="1" fill="currentColor"/><rect x="9" y="13" width="4" height="3" rx="1" fill="currentColor"/><path d="M6 9H1C0.4 9 0 9.4 0 10V15C0 15.6 0.4 16 1 16H6C6.6 16 7 15.6 7 15V10C7 9.4 6.6 9 6 9Z" fill="currentColor"/></g><svg id="mpa-heart" data-name="Capa 1" xmlns="http://www.w3.org/2000/svg" viewBox="0 0 20.34 18"><path id="Icon_feather-heart" data-name="Icon feather-heart" d="M17.93,2.42a4.83,4.83,0,0,0-6.83,0h0l-.93.93-.93-.93A4.83,4.83,0,0,0,2.41,9.24l.93.93L10.17,17,17,10.18l.93-.93a4.82,4.82,0,0,0,0-6.83Z" transform="translate(0 0)" style="fill:none;stroke:currentColor;stroke-linecap:round;stroke-linejoin:round;stroke-width:2px"/></svg><g id="mpa-clone--outline"><path d="M5.20004 5.2L5.20004 3C5.20004 1.89543 6.09547 0.999997 7.20004 0.999997H13C14.1046 0.999997 15 1.89543 15 3V8.80001C15 9.90457 14.1046 10.8 13 10.8H10.8" stroke="currentColor" stroke-width="2" stroke-miterlimit="10" stroke-linecap="square"/><path d="M1 7.19999L1 13C1 14.1046 1.89543 15 3 15H8.79997C9.90454 15 10.8 14.1046 10.8 13V7.19999C10.8 6.09542 9.90454 5.19999 8.79997 5.19999H3C1.89543 5.19999 1 6.09542 1 7.19999Z" stroke="currentColor" stroke-width="2" stroke-miterlimit="10" stroke-linecap="square"/></g><g id="mpa-clone--filled"><path d="M6.07501 4.925L6.07501 2.175C6.07501 1.62271 6.52273 1.175 7.07501 1.175H13.825C14.3773 1.175 14.825 1.62271 14.825 2.175V8.925C14.825 9.47729 14.3773 9.925 13.825 9.925H11.075" fill="currentColor"/><path d="M6.07501 4.925L6.07501 2.175C6.07501 1.62271 6.52273 1.175 7.07501 1.175H13.825C14.3773 1.175 14.825 1.62271 14.825 2.175V8.925C14.825 9.47729 14.3773 9.925 13.825 9.925H11.075" stroke="currentColor" stroke-width="2" stroke-miterlimit="10" stroke-linecap="square"/><path d="M1 6.49999L1 13C1 14.1046 1.89543 15 3 15H9.49997C10.6045 15 11.5 14.1046 11.5 13V6.49999C11.5 5.39542 10.6045 4.49999 9.49997 4.49999H3C1.89543 4.49999 1 5.39542 1 6.49999Z" fill="currentColor" stroke="white" stroke-width="2" stroke-miterlimit="10" stroke-linecap="square"/></g><g id="mpa-edit--outline"><path d="M11.7 0.3C11.3 -0.1 10.7 -0.1 10.3 0.3L0.3 10.3C0.1 10.5 0 10.7 0 11V15C0 15.6 0.4 16 1 16H5C5.3 16 5.5 15.9 5.7 15.7L15.7 5.7C16.1 5.3 16.1 4.7 15.7 4.3L11.7 0.3ZM4.6 14H2V11.4L8 5.4L10.6 8L4.6 14ZM12 6.6L9.4 4L11 2.4L13.6 5L12 6.6Z" fill="currentColor"/></g><g id="mpa-bookmark--filled"><path d="M3.33333 0C2.05 0 1 0.9 1 2V16L8 13L15 16V2C15 0.9 13.95 0 12.6667 0H3.33333Z" fill="currentColor"/></g><g id="mpa-bookmark--outline"><path d="M13 2V13.3L8 11.9L3 13.3V2H13ZM13 0H3C1.9 0 1 0.9 1 2V16L8 14L15 16V2C15 0.9 14.1 0 13 0Z" fill="currentColor"/></g><g id="mpa-edit--filled"><path d="M8.1 3.5L0.3 11.3C0.1 11.5 0 11.7 0 12V15C0 15.6 0.4 16 1 16H4C4.3 16 4.5 15.9 4.7 15.7L12.5 7.9L8.1 3.5Z" fill="currentColor"/><path d="M15.7 3.3L12.7 0.3C12.3 -0.1 11.7 -0.1 11.3 0.3L9.5 2.1L13.9 6.5L15.7 4.7C16.1 4.3 16.1 3.7 15.7 3.3Z" fill="currentColor"/></g><g id="mpa-external-link--line"><path d="M14.3505 0H2.80412V3.29897H10.3918L0 13.6907L2.30928 16L12.701 5.60825V13.1959H16V1.64948C16 0.659794 15.3402 0 14.3505 0Z" fill="currentColor"/></g><g id="mpa-external-link--outline"><path d="M15 0H8V2H12.6L6.3 8.3L7.7 9.7L14 3.4V8H16V1C16 0.4 15.6 0 15 0Z" fill="currentColor"/><path d="M14 16H1C0.4 16 0 15.6 0 15V2C0 1.4 0.4 1 1 1H5V3H2V14H13V11H15V15C15 15.6 14.6 16 14 16Z" fill="currentColor"/></g><g id="mpa-eyesight--outline--off"><path d="M14.5744 5.66925L13.1504 7.09325C13.4284 7.44025 13.6564 7.75725 13.8194 8.00025C13.0594 9.13025 10.9694 11.8203 8.25838 11.9852L6.44337 13.8003C6.93937 13.9243 7.45737 14.0002 8.00037 14.0002C12.7074 14.0002 15.7444 8.71625 15.8714 8.49225C16.0424 8.18825 16.0434 7.81625 15.8724 7.51225C15.8254 7.42725 15.3724 6.63125 14.5744 5.66925Z" fill="currentColor"/><path d="M0.293375 15.7072C0.488375 15.9022 0.744375 16.0002 1.00038 16.0002C1.25638 16.0002 1.51238 15.9022 1.70738 15.7072L15.7074 1.70725C16.0984 1.31625 16.0984 0.68425 15.7074 0.29325C15.3164 -0.09775 14.6844 -0.09775 14.2934 0.29325L11.5484 3.03825C10.5154 2.43125 9.33138 2.00025 8.00037 2.00025C3.24537 2.00025 0.251375 7.28925 0.126375 7.51425C-0.0426249 7.81725 -0.0416249 8.18625 0.128375 8.48925C0.198375 8.61425 1.17238 10.2913 2.82138 11.7653L0.292375 14.2942C-0.0976249 14.6842 -0.0976249 15.3162 0.293375 15.7072ZM2.18138 7.99925C2.95837 6.83525 5.14637 4.00025 8.00037 4.00025C8.74237 4.00025 9.43738 4.20125 10.0784 4.50825L8.51237 6.07425C8.34838 6.02925 8.17838 6.00025 8.00037 6.00025C6.89537 6.00025 6.00038 6.89525 6.00038 8.00025C6.00038 8.17825 6.02938 8.34825 6.07438 8.51225L4.24038 10.3462C3.28538 9.51025 2.55938 8.56225 2.18138 7.99925Z" fill="currentColor"/></g><g id="mpa-eyesight--filled--off"><path d="M14.6 5.60001L6.39999 13.8C6.89999 13.9 7.49999 14 7.99999 14C11.6 14 14.4 10.9 15.6 9.10001C16.1 8.40001 16.1 7.50001 15.6 6.80001C15.4 6.50001 15 6.10001 14.6 5.60001Z" fill="currentColor"/><path d="M14.3 0.3L11.6 3C10.5 2.4 9.3 2 8 2C4.4 2 1.6 5.1 0.4 6.9C-0.1 7.6 -0.1 8.5 0.4 9.1C0.9 9.9 1.8 10.9 2.8 11.8L0.3 14.3C-0.1 14.7 -0.1 15.3 0.3 15.7C0.5 15.9 0.7 16 1 16C1.3 16 1.5 15.9 1.7 15.7L15.7 1.7C16.1 1.3 16.1 0.7 15.7 0.3C15.3 -0.1 14.7 -0.1 14.3 0.3ZM5.3 9.3C5.1 8.9 5 8.5 5 8C5 6.3 6.3 5 8 5C8.5 5 8.9 5.1 9.3 5.3L5.3 9.3Z" fill="currentColor"/></g><g id="mpa-eyesight--outline--on"><path d="M8.00013 14C12.7071 14 15.7441 8.716 15.8711 8.492C16.0421 8.188 16.0431 7.816 15.8721 7.512C15.7461 7.287 12.7311 2 8.00013 2C3.24513 2 0.251127 7.289 0.126127 7.514C-0.0428725 7.817 -0.0418725 8.186 0.128127 8.489C0.254128 8.713 3.26913 14 8.00013 14ZM8.00013 4C10.8391 4 13.0361 6.835 13.8181 8C13.0341 9.166 10.8371 12 8.00013 12C5.15913 12 2.96213 9.162 2.18113 7.999C2.95813 6.835 5.14613 4 8.00013 4Z" fill="currentColor"/><path d="M8 11C9.65685 11 11 9.65685 11 8C11 6.34315 9.65685 5 8 5C6.34315 5 5 6.34315 5 8C5 9.65685 6.34315 11 8 11Z" fill="currentColor"/></g><g id="mpa-eyesight--filled--on"><path d="M7.975 14C11.575 14 14.375 10.9 15.575 9.1C16.075 8.4 16.075 7.5 15.575 6.8C14.375 5.1 11.575 2 7.975 2C4.375 2 1.575 5.1 0.375 6.9C-0.125 7.6 -0.125 8.5 0.375 9.1C1.575 10.9 4.375 14 7.975 14ZM7.975 5C9.675 5 10.975 6.3 10.975 8C10.975 9.7 9.675 11 7.975 11C6.275 11 4.975 9.7 4.975 8C4.975 6.3 6.275 5 7.975 5Z" fill="currentColor"/></g><g id="mpa-filter--outline"><path d="M15 3.16048C15 3.47872 14.8485 3.77795 14.5921 3.96637L9.96348 7.36697C9.70702 7.55539 9.55556 7.85462 9.55556 8.17285V13.0073C9.55556 13.4073 9.31716 13.7688 8.94947 13.9264L7.83836 14.4026C7.1785 14.6854 6.44444 14.2014 6.44444 13.4835V8.17285C6.44444 7.85462 6.29298 7.55539 6.03652 7.36697L1.40792 3.96637C1.15147 3.77795 1 3.47872 1 3.16048V2C1 1.44772 1.44772 1 2 1H14C14.5523 1 15 1.44772 15 2V3.16048Z" stroke="currentColor" stroke-width="2" stroke-miterlimit="10" stroke-linecap="square"/></g><g id="mpa-filter--filled"><path d="M15 0H1C0.4 0 0 0.4 0 1V3C0 3.3 0.1 3.6 0.4 3.8L6 8.5V15C6 15.4 6.2 15.8 6.6 15.9C6.7 16 6.9 16 7 16C7.3 16 7.5 15.9 7.7 15.7L9.7 13.7C9.9 13.5 10 13.3 10 13V8.5L15.6 3.8C15.9 3.6 16 3.3 16 3V1C16 0.4 15.6 0 15 0Z" fill="currentColor"/></g><g id="mpa-minus--line"><path d="M0 7.85715V8.14286C0 8.69515 0.447715 9.14286 1 9.14286H15C15.5523 9.14286 16 8.69515 16 8.14286V7.85715C16 7.30486 15.5523 6.85715 15 6.85715H1C0.447715 6.85715 0 7.30486 0 7.85715Z" fill="currentColor"/></g><g id="mpa-minus--outline"><circle cx="8" cy="8" r="7" stroke="currentColor" stroke-width="2"/><path d="M4 8.5V7.5C4 7.22386 4.22386 7 4.5 7H11.5C11.7761 7 12 7.22386 12 7.5V8.5C12 8.77614 11.7761 9 11.5 9H4.5C4.22386 9 4 8.77614 4 8.5Z" fill="currentColor"/></g><g id="mpa-minus--filled"><path fill-rule="evenodd" clip-rule="evenodd" d="M8 16C12.4183 16 16 12.4183 16 8C16 3.58172 12.4183 0 8 0C3.58172 0 0 3.58172 0 8C0 12.4183 3.58172 16 8 16ZM4.5 7C4.22386 7 4 7.22386 4 7.5V8.5C4 8.77614 4.22386 9 4.5 9H11.5C11.7761 9 12 8.77614 12 8.5V7.5C12 7.22386 11.7761 7 11.5 7L4.5 7Z" fill="currentColor"/></g><g id="mpa-plus--line"><path d="M16 8.14286C16 8.69514 15.5523 9.14286 15 9.14286H9.14286V15C9.14286 15.5523 8.69514 16 8.14286 16H7.85714C7.30486 16 6.85714 15.5523 6.85714 15V9.14286H1C0.447715 9.14286 0 8.69514 0 8.14286V7.85714C0 7.30486 0.447715 6.85714 1 6.85714H6.85714V1C6.85714 0.447715 7.30486 0 7.85714 0H8.14286C8.69514 0 9.14286 0.447715 9.14286 1V6.85714H15C15.5523 6.85714 16 7.30486 16 7.85714V8.14286Z" fill="currentColor"/></g><g id="mpa-plus--outline"><circle cx="8" cy="8" r="7" stroke="currentColor" stroke-width="2"/><path d="M4.5 7H7V4.5C7 4.22386 7.22386 4 7.5 4H8.5C8.77614 4 9 4.22386 9 4.5V7H11.5C11.7761 7 12 7.22386 12 7.5V8.5C12 8.77614 11.7761 9 11.5 9H9V11.5C9 11.7761 8.77614 12 8.5 12H7.5C7.22386 12 7 11.7761 7 11.5V9H4.5C4.22386 9 4 8.77614 4 8.5V7.5C4 7.22386 4.22386 7 4.5 7Z" fill="currentColor"/></g><g id="mpa-plus--filled"><path fill-rule="evenodd" d="M8 16C12.4183 16 16 12.4183 16 8C16 3.58172 12.4183 0 8 0C3.58172 0 0 3.58172 0 8C0 12.4183 3.58172 16 8 16ZM7 7H4.5C4.22386 7 4 7.22386 4 7.5V8.5C4 8.77614 4.22386 9 4.5 9H7V11.5C7 11.7761 7.22386 12 7.5 12H8.5C8.77614 12 9 11.7761 9 11.5V9H11.5C11.7761 9 12 8.77614 12 8.5V7.5C12 7.22386 11.7761 7 11.5 7H9V4.5C9 4.22386 8.77614 4 8.5 4L7.5 4C7.22386 4 7 4.22386 7 4.5V7Z" fill="currentColor"/></g><g id="mpa-remove"><path d="M19.586 0.428571C19.0141 -0.142857 18.1564 -0.142857 17.5845 0.428571L10.0074 8L2.43038 0.428571C1.85853 -0.142857 1.00074 -0.142857 0.42889 0.428571C-0.142964 1 -0.142964 1.85714 0.42889 2.42857L8.00595 10L0.42889 17.5714C-0.142964 18.1429 -0.142964 19 0.42889 19.5714C0.714817 19.8571 1.00074 20 1.42963 20C1.85853 20 2.14445 19.8571 2.43038 19.5714L10.0074 12L17.5845 19.5714C17.8704 19.8571 18.2993 20 18.5853 20C18.8712 20 19.3001 19.8571 19.586 19.5714C20.1578 19 20.1578 18.1429 19.586 17.5714L12.0089 10L19.586 2.42857C20.1578 1.85714 20.1578 1 19.586 0.428571Z" fill="currentColor"/></g><g id="mpa-swap"><path fill-rule="evenodd" clip-rule="evenodd" d="M5.53598 18.7459C7.09743 19.7676 8.92251 20.3199 10.7845 20.3199C16.1971 20.3199 20.6002 15.7623 20.6002 10.1599C20.6002 4.55758 16.1971 0 10.7845 0C5.63795 0 1.40399 4.12068 1.00032 9.34205C0.9655 9.79246 1.33505 10.1599 1.7868 10.1599C2.23856 10.1599 2.60076 9.79265 2.64256 9.34284C3.04095 5.05624 6.54048 1.69332 10.7845 1.69332C15.2948 1.69332 18.9643 5.49145 18.9643 10.1599C18.9643 14.8284 15.2948 18.6266 10.7845 18.6266C9.22645 18.6266 7.70006 18.1624 6.39587 17.3047L7.71056 17.0612C8.16986 16.9761 8.4777 16.534 8.39813 16.0737C8.31856 15.6134 7.88171 15.3093 7.42241 15.3943L4.25458 15.9811L4.24312 15.9833L4.22789 15.9859C3.7832 16.0683 3.48516 16.4963 3.5622 16.942L4.14767 20.3287C4.2247 20.7743 4.64765 21.0688 5.09234 20.9865C5.53704 20.9041 5.83508 20.4761 5.75804 20.0304L5.53598 18.7459Z" fill="currentColor"/></g><g id="mpa-arrows"><path d="M15.829 7.55346L13.829 5.33123C13.7707 5.26579 13.7 5.21249 13.6211 5.17438C13.5422 5.13627 13.4565 5.11411 13.369 5.10916C13.2814 5.1042 13.1938 5.11656 13.1111 5.14551C13.0283 5.17447 12.9521 5.21945 12.8868 5.2779C12.7567 5.39693 12.6783 5.5621 12.6683 5.73815C12.6584 5.9142 12.7176 6.08717 12.8335 6.22012L13.8735 7.37568H8.62012V2.12234L9.77568 3.16234C9.84101 3.22079 9.91722 3.26578 9.99996 3.29473C10.0827 3.32369 10.1703 3.33604 10.2578 3.33109C10.3454 3.32613 10.431 3.30397 10.51 3.26586C10.5889 3.22776 10.6596 3.17445 10.7179 3.10901C10.8337 2.97606 10.893 2.80309 10.883 2.62704C10.8731 2.45099 10.7947 2.28581 10.6646 2.16679L8.44234 0.166788C8.31925 0.0592572 8.16135 0 7.9979 0C7.83445 0 7.67655 0.0592572 7.55345 0.166788L5.33123 2.16679C5.19921 2.28466 5.11943 2.45015 5.10943 2.62685C5.09942 2.80355 5.16003 2.97699 5.2779 3.10901C5.39577 3.24103 5.56126 3.32082 5.73796 3.33082C5.91467 3.34082 6.0881 3.28022 6.22012 3.16234L7.37568 2.12234V7.37568H2.12234L3.16234 6.22012C3.27818 6.08717 3.33745 5.9142 3.32748 5.73815C3.31752 5.5621 3.23911 5.39693 3.10901 5.2779C3.04368 5.21945 2.96747 5.17447 2.88473 5.14551C2.80199 5.11656 2.71436 5.1042 2.62684 5.10916C2.53932 5.11411 2.45364 5.13627 2.3747 5.17438C2.29576 5.21249 2.22511 5.26579 2.16679 5.33123L0.166788 7.55346C0.0592572 7.67655 0 7.83445 0 7.9979C0 8.16135 0.0592572 8.31925 0.166788 8.44234L2.16679 10.6646C2.22511 10.73 2.29576 10.7833 2.3747 10.8214C2.45364 10.8595 2.53932 10.8817 2.62684 10.8866C2.71436 10.8916 2.80199 10.8792 2.88473 10.8503C2.96747 10.8213 3.04368 10.7763 3.10901 10.7179C3.23911 10.5989 3.31752 10.4337 3.32748 10.2576C3.33745 10.0816 3.27818 9.90862 3.16234 9.77568L2.12234 8.62012H7.37568V13.8735L6.22012 12.8335C6.0881 12.7156 5.91467 12.655 5.73796 12.665C5.56126 12.675 5.39577 12.7548 5.2779 12.8868C5.16003 13.0188 5.09942 13.1922 5.10943 13.3689C5.11943 13.5456 5.19921 13.7111 5.33123 13.829L7.55345 15.829C7.67568 15.9383 7.83391 15.9988 7.9979 15.9988C8.16188 15.9988 8.32012 15.9383 8.44234 15.829L10.6646 13.829C10.7299 13.7706 10.7832 13.7 10.8212 13.621C10.8593 13.5421 10.8814 13.4564 10.8864 13.3689C10.8913 13.2815 10.879 13.1938 10.8501 13.1111C10.8212 13.0284 10.7763 12.9522 10.7179 12.8868C10.6595 12.8214 10.5889 12.7682 10.5099 12.7301C10.431 12.6921 10.3453 12.6699 10.2578 12.665C10.1703 12.66 10.0827 12.6724 10 12.7013C9.91727 12.7302 9.84105 12.7751 9.77568 12.8335L8.62012 13.8735V8.62012H13.8735L12.8335 9.77568C12.7176 9.90862 12.6584 10.0816 12.6683 10.2576C12.6783 10.4337 12.7567 10.5989 12.8868 10.7179C12.9521 10.7763 13.0283 10.8213 13.1111 10.8503C13.1938 10.8792 13.2814 10.8916 13.369 10.8866C13.4565 10.8817 13.5422 10.8595 13.6211 10.8214C13.7 10.7833 13.7707 10.73 13.829 10.6646L15.829 8.44234C15.9365 8.31925 15.9958 8.16135 15.9958 7.9979C15.9958 7.83445 15.9365 7.67655 15.829 7.55346Z" fill="currentColor"/></g><g id="mpa-expand"><path d="M9.0001 2H12.6001L8.6001 6L10.0001 7.4L14.0001 3.4V7H16.0001V0H9.0001V2Z" fill="currentColor"/><path d="M6 8.6001L2 12.6001V9.0001H0V16.0001H7V14.0001H3.4L7.4 10.0001L6 8.6001Z" fill="currentColor"/></g><g id="mpa-bag"><path d="M14.0001 15.0002H2L3.20001 4.81819H12.8001L14.0001 15.0002Z" stroke="currentColor" stroke-width="1.5" stroke-miterlimit="10" stroke-linecap="square"/><path d="M6.12476 7.12512V3.72227C6.12476 2.22502 7.05289 1 8.18728 1C9.32167 1 10.2498 2.22502 10.2498 3.72227V7.12512" stroke="currentColor" stroke-width="1.5" stroke-miterlimit="10" stroke-linecap="square"/></g><g id="mpa-bars"><path fill-rule="evenodd" d="M0 12.7778C0 13.2687 0.397969 13.6667 0.888889 13.6667H15.1111C15.602 13.6667 16 13.2687 16 12.7778C16 12.2869 15.602 11.8889 15.1111 11.8889H0.888889C0.397969 11.8889 0 12.2869 0 12.7778ZM0 8.33333C0 8.82425 0.397969 9.22222 0.888889 9.22222H15.1111C15.602 9.22222 16 8.82425 16 8.33333C16 7.84241 15.602 7.44444 15.1111 7.44444H0.888889C0.397969 7.44444 0 7.84241 0 8.33333ZM0.888889 3C0.397969 3 0 3.39797 0 3.88889C0 4.37981 0.397969 4.77778 0.888889 4.77778H15.1111C15.602 4.77778 16 4.37981 16 3.88889C16 3.39797 15.602 3 15.1111 3H0.888889Z" fill="currentColor"/></g><g id="mpa-cog"><path d="M15.135 6.784C13.832 6.458 13.214 4.966 13.905 3.815C14.227 3.279 14.13 2.817 13.811 2.499L13.501 2.189C13.183 1.871 12.721 1.774 12.185 2.095C11.033 2.786 9.541 2.168 9.216 0.865C9.065 0.258 8.669 0 8.219 0H7.781C7.331 0 6.936 0.258 6.784 0.865C6.458 2.168 4.966 2.786 3.815 2.095C3.279 1.773 2.816 1.87 2.498 2.188L2.188 2.498C1.87 2.816 1.773 3.279 2.095 3.815C2.786 4.967 2.168 6.459 0.865 6.784C0.26 6.935 0 7.33 0 7.781V8.219C0 8.669 0.258 9.064 0.865 9.216C2.168 9.542 2.786 11.034 2.095 12.185C1.773 12.721 1.87 13.183 2.189 13.501L2.499 13.811C2.818 14.13 3.281 14.226 3.815 13.905C4.967 13.214 6.459 13.832 6.784 15.135C6.935 15.742 7.331 16 7.781 16H8.219C8.669 16 9.064 15.742 9.216 15.135C9.542 13.832 11.034 13.214 12.185 13.905C12.72 14.226 13.182 14.13 13.501 13.811L13.811 13.501C14.129 13.183 14.226 12.721 13.905 12.185C13.214 11.033 13.832 9.541 15.135 9.216C15.742 9.065 16 8.669 16 8.219V7.781C16 7.33 15.74 6.935 15.135 6.784ZM8 11C6.343 11 5 9.657 5 8C5 6.343 6.343 5 8 5C9.657 5 11 6.343 11 8C11 9.657 9.657 11 8 11Z" fill="currentColor"/></g><g id="mpa-columns"><path d="M1 4H15V15H1V4Z" stroke="currentColor" stroke-width="2"/><path d="M0 1C0 0.447715 0.447715 0 1 0H15C15.5523 0 16 0.447715 16 1V5H0V1Z" fill="currentColor"/><line x1="8.11108" y1="4.70586" x2="8.11108" y2="14.1176" stroke="currentColor" stroke-width="2"/></g><g id="mpa-credit-card"><path d="M13.7142 3.49469C13.8938 3.49469 14.1326 3.56604 14.2596 3.69305C14.3866 3.82006 14.487 3.99232 14.487 4.17194L14.5051 11.2408C14.5051 11.4204 14.4338 11.5927 14.3068 11.7197C14.1798 11.8467 14.0075 11.918 13.8279 11.918L2.30637 11.9181C2.12676 11.9181 1.95449 11.8467 1.82749 11.7197C1.70048 11.5927 1.62912 11.4205 1.62912 11.2408L1.58197 4.172C1.58197 3.99238 1.65333 3.82012 1.78033 3.69311C1.90734 3.56611 2.0796 3.49475 2.25922 3.49475L13.7142 3.49469ZM14.3177 2L1.75127 2.00006C1.30223 2.00006 0.871578 2.17845 0.554056 2.49597C0.236534 2.81349 0 3.24414 0 3.69319L0.0472208 11.8334C0.0472208 12.2825 0.225603 12.7131 0.543125 13.0306C0.860646 13.3482 1.2913 13.5266 1.74034 13.5266L14.3068 13.5265C14.7558 13.5265 15.1865 13.3481 15.504 13.0306C15.8215 12.7131 15.9999 12.2824 15.9999 11.8334L16.0108 3.69312C16.0108 3.24408 15.8325 2.81343 15.5149 2.4959C15.1974 2.17838 14.7668 2 14.3177 2ZM13.4139 5.18788C13.4139 5.00826 13.3426 4.836 13.2156 4.70899C13.0886 4.58198 12.9163 4.51063 12.7367 4.51063H10.2682C10.0885 4.51063 9.91629 4.58198 9.78928 4.70899C9.66227 4.836 9.59092 5.00826 9.59092 5.18788C9.59092 5.36749 9.66227 5.53975 9.78928 5.66676C9.91629 5.79377 10.0885 5.86512 10.2682 5.86512H12.7367C12.9163 5.86512 13.0886 5.79377 13.2156 5.66676C13.3426 5.53975 13.4139 5.36749 13.4139 5.18788ZM3.91809 9.58997C3.91899 9.53426 3.90879 9.47893 3.88809 9.42721C3.86739 9.37548 3.83661 9.32839 3.79753 9.28868C3.75845 9.24896 3.71185 9.21743 3.66046 9.1959C3.60907 9.17438 3.55391 9.1633 3.4982 9.16331H2.84384C2.78376 9.15569 2.72275 9.16095 2.66486 9.17874C2.60697 9.19653 2.55353 9.22644 2.5081 9.26648C2.46266 9.30652 2.42627 9.35578 2.40134 9.41097C2.37642 9.46616 2.36352 9.52603 2.36352 9.58659C2.36352 9.64715 2.37642 9.70701 2.40134 9.76221C2.42627 9.8174 2.46266 9.86665 2.5081 9.90669C2.55353 9.94673 2.60697 9.97664 2.66486 9.99443C2.72275 10.0122 2.78376 10.0175 2.84384 10.0099H3.4982C3.55334 10.0099 3.60794 9.99901 3.65888 9.9779C3.70983 9.9568 3.75611 9.92587 3.79511 9.88688C3.8341 9.84789 3.86503 9.8016 3.88613 9.75066C3.90723 9.69972 3.91809 9.64511 3.91809 9.58997ZM10.5806 9.58896C10.5815 9.53325 10.5713 9.47792 10.5506 9.42619C10.5299 9.37446 10.4991 9.32737 10.46 9.28766C10.4209 9.24795 10.3743 9.21641 10.3229 9.19489C10.2715 9.17336 10.2164 9.16228 10.1607 9.16229L9.39853 9.1661C9.33845 9.15848 9.27744 9.16374 9.21955 9.18153C9.16166 9.19932 9.10822 9.22923 9.06279 9.26927C9.01735 9.30931 8.98096 9.35857 8.95604 9.41376C8.93111 9.46895 8.91822 9.52882 8.91822 9.58938C8.91822 9.64994 8.93111 9.7098 8.95604 9.765C8.98096 9.82019 9.01735 9.86944 9.06279 9.90948C9.10822 9.94952 9.16166 9.97943 9.21955 9.99722C9.27744 10.015 9.33845 10.0203 9.39853 10.0127L10.1607 10.0088C10.272 10.0088 10.3788 9.96461 10.4576 9.88587C10.5363 9.80712 10.5806 9.70032 10.5806 9.58896ZM8.26409 9.59276C8.2641 9.48077 8.22008 9.37326 8.14152 9.29343C8.06296 9.21361 7.95617 9.16787 7.84419 9.1661L7.12468 9.16568C7.0646 9.15806 7.00359 9.16332 6.9457 9.18111C6.88781 9.1989 6.83437 9.22881 6.78894 9.26885C6.7435 9.30889 6.70711 9.35814 6.68218 9.41334C6.65726 9.46853 6.64436 9.5284 6.64436 9.58896C6.64436 9.64952 6.65726 9.70938 6.68218 9.76458C6.70711 9.81977 6.7435 9.86902 6.78894 9.90906C6.83437 9.9491 6.88781 9.97901 6.9457 9.9968C7.00359 10.0146 7.0646 10.0199 7.12468 10.0122L7.84419 10.0127C7.95555 10.0127 8.06236 9.96842 8.1411 9.88967C8.21985 9.81093 8.26409 9.70413 8.26409 9.59276ZM6.0303 9.59234C6.0303 9.47918 5.98534 9.37066 5.90533 9.29064C5.82531 9.21063 5.71679 9.16568 5.60363 9.16568L4.87065 9.16331C4.76761 9.17637 4.67287 9.22657 4.60419 9.30449C4.53552 9.38242 4.49763 9.48272 4.49763 9.58659C4.49763 9.69045 4.53552 9.79075 4.60419 9.86868C4.67287 9.94661 4.76761 9.99681 4.87065 10.0099L5.60363 10.0122C5.71562 10.0122 5.82313 9.96823 5.90296 9.88967C5.98278 9.81112 6.02852 9.70432 6.0303 9.59234Z" fill="currentColor"/></g><g id="mpa-elypsis"><circle cx="7.77778" cy="1.77778" r="1.77778" fill="currentColor"/><circle cx="7.77778" cy="8.00001" r="1.77778" fill="currentColor"/><circle cx="7.77778" cy="14.2222" r="1.77778" fill="currentColor"/></g><g id="mpa-exchange"><path d="M15.8173 5.29688L12.9284 8.39911C12.866 8.4664 12.7904 8.52009 12.7062 8.5568C12.6221 8.59351 12.5313 8.61245 12.4395 8.61244C12.2716 8.6116 12.11 8.54821 11.9862 8.43466C11.8635 8.30854 11.7948 8.13952 11.7948 7.96355C11.7948 7.78758 11.8635 7.61856 11.9862 7.49244L13.8351 5.50133H0.990643V4.17688H13.7995L11.9506 2.17688C11.8779 2.1157 11.8191 2.03967 11.7781 1.95389C11.7372 1.86811 11.715 1.77456 11.7132 1.67952C11.7114 1.58448 11.7299 1.49015 11.7675 1.40285C11.8051 1.31556 11.861 1.23731 11.9313 1.17337C12.0016 1.10943 12.0848 1.06127 12.1753 1.03212C12.2658 1.00297 12.3614 0.993506 12.4559 1.00436C12.5503 1.01522 12.6413 1.04614 12.7228 1.09506C12.8043 1.14398 12.8744 1.20976 12.9284 1.28799L15.8173 4.39911C15.931 4.52092 15.9943 4.68135 15.9943 4.848C15.9943 5.01464 15.931 5.17508 15.8173 5.29688ZM4.03953 9.288C4.11228 9.22681 4.1711 9.15078 4.21206 9.065C4.25301 8.97922 4.27515 8.88567 4.27698 8.79063C4.27881 8.69559 4.2603 8.60126 4.22268 8.51397C4.18507 8.42667 4.12922 8.34843 4.05888 8.28448C3.98855 8.22054 3.90535 8.17238 3.81488 8.14323C3.7244 8.11408 3.62874 8.10462 3.5343 8.11547C3.43987 8.12633 3.34885 8.15725 3.26735 8.20617C3.18584 8.25509 3.11575 8.32087 3.06175 8.39911L0.172865 11.5013C0.0616785 11.6226 0 11.7812 0 11.9458C0 12.1103 0.0616785 12.2689 0.172865 12.3902L3.06175 15.5102C3.12417 15.5775 3.19981 15.6312 3.28393 15.6679C3.36806 15.7046 3.45886 15.7236 3.55064 15.7236C3.7186 15.7227 3.88022 15.6593 4.00398 15.5458C4.12669 15.4197 4.19535 15.2506 4.19535 15.0747C4.19535 14.8987 4.12669 14.7297 4.00398 14.6036L2.19064 12.6213H14.9995V11.288H2.19064L4.03953 9.288Z" fill="currentColor"/></g><g id="mpa-export"><path d="M15 16H1C0.4 16 0 15.6 0 15V9H2V14H14V4H12V2H15C15.6 2 16 2.4 16 3V15C16 15.6 15.6 16 15 16Z" fill="currentColor"/><path d="M6 3C9.2 3 12 5.5 12 10C10.9 8.3 9.6 7 6 7V10L0 5L6 0V3Z" fill="currentColor"/></g><g id="mpa-link"><path d="M11 0C9.7 0 8.4 0.5 7.5 1.5L6.3 2.6C5.9 3 5.9 3.6 6.3 4C6.7 4.4 7.3 4.4 7.7 4L8.9 2.8C10 1.7 12 1.7 13.1 2.8C13.7 3.4 14 4.2 14 5C14 5.8 13.7 6.6 13.1 7.1L12 8.3C11.6 8.7 11.6 9.3 12 9.7C12.2 9.9 12.5 10 12.7 10C12.9 10 13.2 9.9 13.4 9.7L14.6 8.5C15.5 7.6 16 6.3 16 5C16 3.7 15.5 2.4 14.5 1.5C13.6 0.5 12.3 0 11 0Z" fill="currentColor"/><path d="M8.3 12L7.1 13.2C6 14.3 4 14.3 2.9 13.2C2.3 12.6 2 11.8 2 11C2 10.2 2.3 9.4 2.9 8.9L4 7.7C4.4 7.3 4.4 6.7 4 6.3C3.6 5.9 3 5.9 2.6 6.3L1.5 7.5C0.5 8.4 0 9.7 0 11C0 12.3 0.5 13.6 1.5 14.5C2.4 15.5 3.7 16 5 16C6.3 16 7.6 15.5 8.5 14.5L9.7 13.3C10.1 12.9 10.1 12.3 9.7 11.9C9.3 11.5 8.7 11.6 8.3 12Z" fill="currentColor"/><path d="M9.39999 5.19999L5.19999 9.39999C4.79999 9.79999 4.79999 10.4 5.19999 10.8C5.39999 11 5.69999 11.1 5.89999 11.1C6.09999 11.1 6.39999 11 6.59999 10.8L10.8 6.59999C11.2 6.19999 11.2 5.59999 10.8 5.19999C10.4 4.79999 9.79999 4.79999 9.39999 5.19999Z" fill="currentColor"/></g><g id="mpa-settings"><path d="M3.79999 4.73334V1" stroke="currentColor" stroke-miterlimit="10" stroke-linecap="round" stroke-linejoin="round"/><path d="M3.79999 15V13.1334" stroke="currentColor" stroke-miterlimit="10" stroke-linecap="round" stroke-linejoin="round"/><path d="M12.2 11.2667V15" stroke="currentColor" stroke-miterlimit="10" stroke-linecap="round" stroke-linejoin="round"/><path d="M12.2 1V2.86667" stroke="currentColor" stroke-miterlimit="10" stroke-linecap="round" stroke-linejoin="round"/><path d="M3.8 13.1333C5.3464 13.1333 6.60001 11.8797 6.60001 10.3333C6.60001 8.78695 5.3464 7.53334 3.8 7.53334C2.2536 7.53334 1 8.78695 1 10.3333C1 11.8797 2.2536 13.1333 3.8 13.1333Z" stroke="currentColor" stroke-miterlimit="10" stroke-linecap="round" stroke-linejoin="round"/><path d="M12.2 8.46668C13.7464 8.46668 15 7.21307 15 5.66667C15 4.12027 13.7464 2.86667 12.2 2.86667C10.6536 2.86667 9.40002 4.12027 9.40002 5.66667C9.40002 7.21307 10.6536 8.46668 12.2 8.46668Z" stroke="currentColor" stroke-miterlimit="10" stroke-linecap="round" stroke-linejoin="round"/></g><g id="mpa-store"><path d="M12.6667 1H3.33333L1 5.2C1 6.48893 2.0444 7.53333 3.33333 7.53333C4.62227 7.53333 5.66667 6.48893 5.66667 5.2C5.66667 6.48893 6.71107 7.53333 8 7.53333C9.28893 7.53333 10.3333 6.48893 10.3333 5.2C10.3333 6.48893 11.3777 7.53333 12.6667 7.53333C13.9556 7.53333 15 6.48893 15 5.2L12.6667 1Z" stroke="currentColor" stroke-width="1.5" stroke-miterlimit="10" stroke-linecap="round" stroke-linejoin="round"/><path d="M13.25 9.75V15H2.75V9.75" stroke="currentColor" stroke-width="1.5" stroke-miterlimit="10" stroke-linecap="round" stroke-linejoin="round"/><path d="M6.59999 15V11.2667H9.39999V15" stroke="currentColor" stroke-width="1.5" stroke-miterlimit="10" stroke-linecap="round" stroke-linejoin="round"/></g><g id="mpa-angle--down"><path d="M4 6L8.5 10.5L13 6" stroke="currentColor" stroke-miterlimit="10" stroke-linecap="round" stroke-linejoin="round"/></g><g id="mpa-angle--up"><path d="M13 10L8.5 5.5L4 10" stroke="currentColor" stroke-miterlimit="10" stroke-linecap="round" stroke-linejoin="round"/></g><g id="mpa-location-input"><path d="M9 0C4.05 0 0 4.05 0 9C0 13.95 4.05 18 9 18C13.95 18 18 13.95 18 9C18 4.05 13.95 0 9 0ZM10.125 10.125L7.875 14.625L5.625 5.625L14.625 7.875L10.125 10.125Z" fill="currentColor"/></g><g id="inf-star"><path d="M7.369,11.251,11.923,14,10.714,8.82l4.023-3.485-5.3-.449L7.369,0,5.3,4.885,0,5.335,4.023,8.82,2.815,14Z" fill="currentColor"/></g><g id="inf-help--outline"><path d="M8 0C3.6 0 0 3.6 0 8C0 12.4 3.6 16 8 16C12.4 16 16 12.4 16 8C16 3.6 12.4 0 8 0ZM8 14C4.7 14 2 11.3 2 8C2 4.7 4.7 2 8 2C11.3 2 14 4.7 14 8C14 11.3 11.3 14 8 14Z" fill="currentColor"/><path d="M8 13C8.55228 13 9 12.5523 9 12C9 11.4477 8.55228 11 8 11C7.44772 11 7 11.4477 7 12C7 12.5523 7.44772 13 8 13Z" fill="currentColor"/><path d="M7.09999 5.5C7.29999 5.2 7.59999 5 7.99999 5C8.59999 5 8.99999 5.4 8.99999 6C8.99999 6.3 8.89999 6.4 8.39999 6.7C7.79999 7.1 6.99999 7.7 6.99999 9V10H8.99999V9C8.99999 8.8 8.99999 8.7 9.49999 8.4C10.1 8 11 7.4 11 6C11 4.3 9.69999 3 7.99999 3C6.89999 3 5.89999 3.6 5.39999 4.5L4.89999 5.4L6.59999 6.4L7.09999 5.5Z" fill="currentColor"/></g><g id="inf-help--filled"><path d="M8 0C3.6 0 0 3.6 0 8C0 12.4 3.6 16 8 16C12.4 16 16 12.4 16 8C16 3.6 12.4 0 8 0ZM8 13C7.4 13 7 12.6 7 12C7 11.4 7.4 11 8 11C8.6 11 9 11.4 9 12C9 12.6 8.6 13 8 13ZM9.5 8.4C9 8.7 9 8.8 9 9V10H7V9C7 7.7 7.8 7.1 8.4 6.7C8.9 6.4 9 6.3 9 6C9 5.4 8.6 5 8 5C7.6 5 7.3 5.2 7.1 5.5L6.6 6.4L4.9 5.4L5.4 4.5C5.9 3.6 6.9 3 8 3C9.7 3 11 4.3 11 6C11 7.4 10.1 8 9.5 8.4Z" fill="currentColor"/></g><g id="inf-tooltip--outline"><path d="M8 16C12.4 16 16 12.4 16 8C16 3.6 12.4 0 8 0C3.6 0 0 3.6 0 8C0 12.4 3.6 16 8 16ZM8 2C11.3 2 14 4.7 14 8C14 11.3 11.3 14 8 14C4.7 14 2 11.3 2 8C2 4.7 4.7 2 8 2Z" fill="currentColor"/><path d="M7 12H9V7H7L7 12Z" fill="currentColor"/><path d="M8 4C7.44772 4 7 4.44772 7 5C7 5.55228 7.44772 6 8 6C8.55228 6 9 5.55228 9 5C9 4.44772 8.55228 4 8 4Z" fill="currentColor"/></g><g id="inf-tooltip--filled"><path d="M8 0C3.6 0 0 3.6 0 8C0 12.4 3.6 16 8 16C12.4 16 16 12.4 16 8C16 3.6 12.4 0 8 0ZM9 12H7V7H9V12ZM8 6C7.4 6 7 5.6 7 5C7 4.4 7.4 4 8 4C8.6 4 9 4.4 9 5C9 5.6 8.6 6 8 6Z" fill="currentColor"/></g><g id="inf-warning--outline"><path d="M8 0C3.6 0 0 3.6 0 8C0 12.4 3.6 16 8 16C12.4 16 16 12.4 16 8C16 3.6 12.4 0 8 0ZM8 14C4.7 14 2 11.3 2 8C2 4.7 4.7 2 8 2C11.3 2 14 4.7 14 8C14 11.3 11.3 14 8 14Z" fill="currentColor"/><path d="M9 4H7V9H9V4Z" fill="currentColor"/><path d="M8 12C8.55228 12 9 11.5523 9 11C9 10.4477 8.55228 10 8 10C7.44772 10 7 10.4477 7 11C7 11.5523 7.44772 12 8 12Z" fill="currentColor"/></g><g id="inf-warning--filled"><path d="M8 0C3.6 0 0 3.6 0 8C0 12.4 3.6 16 8 16C12.4 16 16 12.4 16 8C16 3.6 12.4 0 8 0ZM8 12C7.4 12 7 11.6 7 11C7 10.4 7.4 10 8 10C8.6 10 9 10.4 9 11C9 11.6 8.6 12 8 12ZM9 9H7V4H9V9Z" fill="currentColor"/></g><g id="nav-caret--down"><path d="M8.73746 13.1948C8.34108 13.6276 7.65892 13.6276 7.26254 13.1948L0 5.26471L2.07407 3L8 9.47059L13.9259 3L16 5.26471L8.73746 13.1948Z" fill="currentColor"/></g><g id="nav-caret--left"><path d="M2.80524 8.73746C2.37243 8.34108 2.37243 7.65892 2.80525 7.26254L10.7353 0L13 2.07407L6.52941 8L13 13.9259L10.7353 16L2.80524 8.73746Z" fill="currentColor"/></g><g id="nav-caret--right"><path d="M12.1948 7.26254C12.6276 7.65892 12.6276 8.34108 12.1948 8.73746L4.26471 16L2 13.9259L8.47059 8L2 2.07407L4.26471 0L12.1948 7.26254Z" fill="currentColor"/></g><g id="nav-caret--up"><path d="M7.26254 2.80524C7.65892 2.37243 8.34108 2.37243 8.73746 2.80525L16 10.7353L13.9259 13L8 6.52941L2.07407 13L0 10.7353L7.26254 2.80524Z" fill="currentColor"/></g><g id="nav-thin-caret--left"><path d="M11 1L4 8L11 15" stroke="#FFF" stroke-width="2" stroke-miterlimit="10" stroke-linecap="round" stroke-linejoin="round"/></g><g id="nav-thin-caret--right"><path d="M5 15L12 8L5 1" stroke="#FFF" stroke-width="2" stroke-miterlimit="10" stroke-linecap="round" stroke-linejoin="round"/></g><g id="nav-arrow--left"><path d="M0.499992 7.5C0.499992 7.75781 0.583325 7.92969 0.749992 8.10156L5.49999 13L6.66666 11.7969L3.33332 8.35938L16.0002 8.35938V6.64063L3.33332 6.64063L6.66666 3.20313L5.49999 2L0.749992 6.89844C0.583325 7.07031 0.499992 7.24219 0.499992 7.5Z" fill="currentColor"/></g><g id="nav-arrow--right"><path d="M16 8.5C16 8.75781 15.914 8.92969 15.7419 9.10156L10.8388 14L9.6345 12.7969L13.0753 9.35938L0 9.35938L0 7.64063L13.0753 7.64063L9.6345 4.20313L10.8388 3L15.7419 7.89844C15.914 8.07031 16 8.24219 16 8.5Z" fill="currentColor"/></g><svg id="nav-home" data-name="Capa 1" xmlns="http://www.w3.org/2000/svg" viewBox="0 0 25 14.23"><path d="M14.13,5.72,8.5,19.16c-.12.27,0,.45.35.45H11.5a.51.51,0,0,0,.52-.33L17.73,5.84a.28.28,0,0,0,0-.13h0c0-.19-.13-.31-.38-.31h-2.7a.49.49,0,0,0-.52.33" transform="translate(0 -5.38)" style="fill:currentColor"/><path d="M6.93,5.72,1.29,19.16c-.11.27,0,.45.35.45H4.3a.51.51,0,0,0,.52-.33l5.7-13.44V5.71h0c.06-.2-.09-.32-.36-.32H7.45a.48.48,0,0,0-.52.33" transform="translate(0 -5.38)" style="fill:currentColor"/><path d="M3.28,5.71h0c0-.2-.13-.32-.38-.32H.46A.45.45,0,0,0,0,5.84H0v7.68L3.24,5.84V5.71" transform="translate(0 -5.38)" style="fill:currentColor"/><path d="M21.41,5.72,15.77,19.16c-.12.27,0,.45.35.45h2.65a.51.51,0,0,0,.52-.33L25,5.84V5.71h0c0-.19-.13-.31-.39-.31H21.93a.48.48,0,0,0-.52.33" transform="translate(0 -5.38)" style="fill:currentColor"/></svg><g id="nav-plus"><path d="M15,7H9V1c0-0.6-0.4-1-1-1S7,0.4,7,1v6H1C0.4,7,0,7.4,0,8s0.4,1,1,1h6v6c0,0.6,0.4,1,1,1s1-0.4,1-1V9h6 c0.6,0,1-0.4,1-1S15.6,7,15,7z" fill="currentColor"/></g><g id="nav-minus"><path d="M15,7H1C0.4,7,0,7.4,0,8s0.4,1,1,1h14c0.6,0,1-0.4,1-1S15.6,7,15,7z" fill="currentColor"/></g><g id="sti-loading"><circle cx="50" opacity="0.4" cy="50" fill="none" stroke="#000000" r="40" class="c-muted-1" stroke-width="14"/><circle cx="50" cy="50" fill="none" stroke="#000000" r="40" stroke-dasharray="60 900" stroke-width="12" stroke-linecap="round"><animateTransform attributeName="transform" attributeType="XML" dur="0.7s" type="rotate" from="0 50 50" to="360 50 50" repeatCount="indefinite"/></circle></g><g id="sti-check--line"><path d="M5.6 10L3.10711 7.50711C2.71658 7.11658 2.08342 7.11658 1.69289 7.50711L0.707107 8.49289C0.316583 8.88342 0.316583 9.51658 0.707107 9.90711L4.89289 14.0929C5.28342 14.4834 5.91658 14.4834 6.30711 14.0929L15.2929 5.10711C15.6834 4.71658 15.6834 4.08342 15.2929 3.69289L14.3071 2.70711C13.9166 2.31658 13.2834 2.31658 12.8929 2.70711L5.6 10Z" fill="currentColor"/></g><g id="sti-check--outline"><path d="M8 0C3.589 0 0 3.589 0 8C0 12.411 3.589 16 8 16C12.411 16 16 12.411 16 8C16 3.589 12.411 0 8 0ZM8 14C4.691 14 2 11.309 2 8C2 4.691 4.691 2 8 2C11.309 2 14 4.691 14 8C14 11.309 11.309 14 8 14Z" fill="currentColor"/><path d="M7.35355 11.0604C7.15829 11.2557 6.84171 11.2557 6.64645 11.0604L3.93955 8.35355C3.74429 8.15829 3.74429 7.84171 3.93955 7.64645L4.64645 6.93955C4.84171 6.74429 5.15829 6.74429 5.35355 6.93955L7 8.586L10.6464 4.93955C10.8417 4.74429 11.1583 4.74429 11.3536 4.93955L12.0604 5.64645C12.2557 5.84171 12.2557 6.15829 12.0604 6.35355L7.35355 11.0604Z" fill="currentColor"/></g><g id="sti-check--filled"><path d="M8 0C3.6 0 0 3.6 0 8C0 12.4 3.6 16 8 16C12.4 16 16 12.4 16 8C16 3.6 12.4 0 8 0ZM7.35355 11.0464C7.15829 11.2417 6.84171 11.2417 6.64645 11.0464L3.95355 8.35355C3.75829 8.15829 3.75829 7.84171 3.95355 7.64645L4.64645 6.95355C4.84171 6.75829 5.15829 6.75829 5.35355 6.95355L7 8.6L10.6464 4.95355C10.8417 4.75829 11.1583 4.75829 11.3536 4.95355L12.0464 5.64645C12.2417 5.84171 12.2417 6.15829 12.0464 6.35355L7.35355 11.0464Z" fill="currentColor"/></g><g id="sti-close--line"><path d="M11.9998 3.99995L4 11.9998" stroke="currentColor" stroke-miterlimit="10" stroke-linecap="round" stroke-linejoin="round"/><path d="M4.00027 4L12.0001 11.9998" stroke="currentColor" stroke-miterlimit="10" stroke-linecap="round" stroke-linejoin="round"/></g><g id="sti-close--outline"><path d="M10.4536 4.85355C10.2583 4.65829 9.94171 4.65829 9.74645 4.85355L8 6.6L6.25355 4.85355C6.05829 4.65829 5.74171 4.65829 5.54645 4.85355L4.85355 5.54645C4.65829 5.74171 4.65829 6.05829 4.85355 6.25355L6.6 8L4.85355 9.74645C4.65829 9.94171 4.65829 10.2583 4.85355 10.4536L5.54645 11.1464C5.74171 11.3417 6.05829 11.3417 6.25355 11.1464L8 9.4L9.74645 11.1464C9.94171 11.3417 10.2583 11.3417 10.4536 11.1464L11.1464 10.4536C11.3417 10.2583 11.3417 9.94171 11.1464 9.74645L9.4 8L11.1464 6.25355C11.3417 6.05829 11.3417 5.74171 11.1464 5.54645L10.4536 4.85355Z" fill="currentColor"/><path d="M8 0C3.6 0 0 3.6 0 8C0 12.4 3.6 16 8 16C12.4 16 16 12.4 16 8C16 3.6 12.4 0 8 0ZM8 14C4.7 14 2 11.3 2 8C2 4.7 4.7 2 8 2C11.3 2 14 4.7 14 8C14 11.3 11.3 14 8 14Z" fill="currentColor"/></g><g id="sti-close--filled"><path d="M8 0C3.6 0 0 3.6 0 8C0 12.4 3.6 16 8 16C12.4 16 16 12.4 16 8C16 3.6 12.4 0 8 0ZM11.1464 9.74645C11.3417 9.94171 11.3417 10.2583 11.1464 10.4536L10.4536 11.1464C10.2583 11.3417 9.94171 11.3417 9.74645 11.1464L8 9.4L6.25355 11.1464C6.05829 11.3417 5.74171 11.3417 5.54645 11.1464L4.85355 10.4536C4.65829 10.2583 4.65829 9.94171 4.85355 9.74645L6.6 8L4.85355 6.25355C4.65829 6.05829 4.65829 5.74171 4.85355 5.54645L5.54645 4.85355C5.74171 4.65829 6.05829 4.65829 6.25355 4.85355L8 6.6L9.74645 4.85355C9.94171 4.65829 10.2583 4.65829 10.4536 4.85355L11.1464 5.54645C11.3417 5.74171 11.3417 6.05829 11.1464 6.25355L9.4 8L11.1464 9.74645Z" fill="currentColor"/></g><g id="sti-clock"><path d="M8 0C3.6 0 0 3.6 0 8C0 12.4 3.6 16 8 16C12.4 16 16 12.4 16 8C16 3.6 12.4 0 8 0ZM8 14C4.7 14 2 11.3 2 8C2 4.7 4.7 2 8 2C11.3 2 14 4.7 14 8C14 11.3 11.3 14 8 14Z" fill="currentColor"/><path d="M9 4.5C9 4.22386 8.77614 4 8.5 4H7.5C7.22386 4 7 4.22386 7 4.5V8C7 8.55228 7.44772 9 8 9H11.5C11.7761 9 12 8.77614 12 8.5V7.5C12 7.22386 11.7761 7 11.5 7H9V4.5Z" fill="currentColor"/></g><g id="sti-equals"><rect y="16" width="44" height="6" rx="1" fill="currentColor"/><rect width="44" height="6" rx="1" fill="currentColor"/></g><g id="sti-discount"><path d="M7.99991 1.57331L8.7199 2.40886L9.1199 2.87108C9.17697 2.93924 9.25391 2.98788 9.33996 3.01019C9.42602 3.0325 9.5169 3.02737 9.5999 2.99552L10.1777 2.79997L11.2088 2.43553L11.4132 3.55552L11.5288 4.15107C11.5463 4.23881 11.5895 4.31939 11.6527 4.38266C11.716 4.44593 11.7966 4.48906 11.8843 4.50662L12.4799 4.62217L13.5643 4.82662L13.1999 5.85772L13.0043 6.43549C12.9725 6.51849 12.9673 6.60937 12.9896 6.69542C13.012 6.78148 13.0606 6.85842 13.1288 6.91549L13.591 7.31549L14.4265 8.03548L13.591 8.75547L13.1288 9.15547C13.0606 9.21254 13.012 9.28948 12.9896 9.37553C12.9673 9.46159 12.9725 9.55247 13.0043 9.63547L13.1999 10.2132L13.5643 11.2443L12.4443 11.4132L11.8488 11.5288C11.761 11.5463 11.6804 11.5895 11.6172 11.6527C11.5539 11.716 11.5108 11.7966 11.4932 11.8843L11.3777 12.4799L11.1732 13.5643L10.1421 13.1999L9.56434 13.0043C9.48134 12.9725 9.39046 12.9673 9.30441 12.9897C9.21835 13.012 9.14142 13.0606 9.08434 13.1288L8.68435 13.591L7.99991 14.4265L7.27991 13.591L6.87992 13.1288C6.82285 13.0606 6.74591 13.012 6.65985 12.9897C6.5738 12.9673 6.48292 12.9725 6.39992 13.0043L5.82215 13.1999L4.79105 13.5643L4.5866 12.4443L4.51549 12.1643L4.44438 11.8843C4.42682 11.7966 4.38369 11.716 4.32042 11.6527C4.25715 11.5895 4.17657 11.5463 4.08883 11.5288L3.5555 11.4132L2.47107 11.2088L2.83551 10.1777L3.03106 9.59991C3.06291 9.51691 3.06804 9.42603 3.04573 9.33998C3.02342 9.25392 2.97478 9.17699 2.90662 9.11992L2.4444 8.71992L1.5733 7.99992L2.40885 7.27993L2.87106 6.87993C2.93923 6.82286 2.98786 6.74592 3.01017 6.65987C3.03248 6.57381 3.02736 6.48294 2.99551 6.39994L2.79995 5.82217L2.43551 4.79106L3.5555 4.58662L4.1155 4.4444C4.20324 4.42684 4.28382 4.38371 4.34709 4.32044C4.41036 4.25717 4.45349 4.17658 4.47105 4.08885L4.5866 3.55552L4.79105 2.47108L5.82215 2.83552L6.39992 3.03108C6.48292 3.06293 6.5738 3.06805 6.65985 3.04574C6.74591 3.02343 6.82285 2.9748 6.87992 2.90663L7.27991 2.44442L7.99991 1.57331ZM6.26659 1.57331L4.73771 1.03998C4.61843 0.994907 4.49084 0.976025 4.36361 0.984619C4.23637 0.993213 4.11248 1.02908 4.00034 1.08979C3.8882 1.1505 3.79043 1.23463 3.71368 1.33646C3.63692 1.43829 3.58298 1.55545 3.5555 1.67998L3.27106 3.27108L1.67996 3.55552C1.5544 3.57915 1.43541 3.62956 1.3311 3.70333C1.22679 3.77711 1.1396 3.8725 1.07549 3.98301C1.01138 4.09352 0.971841 4.21656 0.959575 4.34373C0.947309 4.4709 0.962602 4.59922 1.00441 4.71995L1.53774 6.24883L0.311085 7.32437C0.213504 7.40782 0.13516 7.51142 0.081442 7.62804C0.0277243 7.74466 -9.15527e-05 7.87153 -9.15527e-05 7.99992C-9.15527e-05 8.12832 0.0277243 8.25519 0.081442 8.37181C0.13516 8.48843 0.213504 8.59203 0.311085 8.67547L1.53774 9.77769L1.00441 11.3066C0.967083 11.4257 0.955261 11.5513 0.969716 11.6753C0.984171 11.7993 1.02458 11.9189 1.08831 12.0262C1.15204 12.1335 1.23766 12.2262 1.3396 12.2983C1.44154 12.3703 1.55751 12.4201 1.67996 12.4443L3.27106 12.7466L3.5555 14.3199C3.57913 14.4454 3.62955 14.5644 3.70332 14.6687C3.77709 14.773 3.87248 14.8602 3.98299 14.9243C4.09351 14.9885 4.21654 15.028 4.34371 15.0403C4.47089 15.0525 4.59921 15.0372 4.71994 14.9954L6.24881 14.4621L7.30658 15.6887C7.39003 15.7863 7.49363 15.8647 7.61024 15.9184C7.72686 15.9721 7.85373 15.9999 7.98213 15.9999C8.11053 15.9999 8.2374 15.9721 8.35402 15.9184C8.47064 15.8647 8.57423 15.7863 8.65768 15.6887L9.77767 14.4621L11.3065 14.9954C11.4257 15.0328 11.5513 15.0446 11.6753 15.0301C11.7993 15.0157 11.9188 14.9753 12.0262 14.9115C12.1335 14.8478 12.2262 14.7622 12.2983 14.6602C12.3703 14.5583 12.4201 14.4423 12.4443 14.3199L12.7465 12.7288L14.3199 12.4443C14.4454 12.4207 14.5644 12.3703 14.6687 12.2965C14.773 12.2227 14.8602 12.1273 14.9243 12.0168C14.9884 11.9063 15.028 11.7833 15.0402 11.6561C15.0525 11.5289 15.0372 11.4006 14.9954 11.2799L14.4621 9.77769L15.6887 8.71992C15.7863 8.63647 15.8647 8.53287 15.9184 8.41625C15.9721 8.29964 15.9999 8.17276 15.9999 8.04437C15.9999 7.91597 15.9721 7.7891 15.9184 7.67248C15.8647 7.55586 15.7863 7.45227 15.6887 7.36882L14.4621 6.26661L14.9954 4.73773C15.0403 4.61598 15.058 4.48587 15.0473 4.35655C15.0365 4.22723 14.9976 4.10183 14.9332 3.98916C14.8688 3.87649 14.7805 3.77928 14.6746 3.70437C14.5686 3.62945 14.4475 3.57865 14.3199 3.55552L12.7288 3.2533L12.4443 1.67998C12.4207 1.55442 12.3703 1.43543 12.2965 1.33112C12.2227 1.2268 12.1273 1.13962 12.0168 1.07551C11.9063 1.01139 11.7833 0.971856 11.6561 0.95959C11.5289 0.947324 11.4006 0.962618 11.2799 1.00443L9.77767 1.53776L8.67546 0.311101C8.59201 0.21352 8.48841 0.135175 8.3718 0.0814573C8.25518 0.0277395 8.12831 -7.62939e-05 7.99991 -7.62939e-05C7.87151 -7.62939e-05 7.74464 0.0277395 7.62802 0.0814573C7.5114 0.135175 7.40781 0.21352 7.32436 0.311101L6.26659 1.57331ZM9.57323 4.88884H10.3377C10.37 4.88836 10.4018 4.89669 10.4298 4.91295C10.4577 4.92921 10.4807 4.95278 10.4962 4.98112C10.5117 5.00945 10.5193 5.04149 10.5179 5.07378C10.5166 5.10608 10.5066 5.1374 10.4888 5.16439L6.79992 10.9066C6.75976 10.9692 6.70454 11.0207 6.63932 11.0564C6.5741 11.0921 6.50095 11.1109 6.42659 11.111H5.66215C5.62984 11.1115 5.598 11.1032 5.57007 11.0869C5.54214 11.0706 5.51916 11.0471 5.50362 11.0187C5.48808 10.9904 5.48056 10.9584 5.48187 10.9261C5.48318 10.8938 5.49326 10.8624 5.51104 10.8355L9.1999 5.09328C9.24006 5.03069 9.29527 4.97918 9.3605 4.94346C9.42572 4.90774 9.49887 4.88896 9.57323 4.88884ZM9.99989 8.88881C9.78014 8.88881 9.56532 8.95397 9.3826 9.07606C9.19988 9.19815 9.05747 9.37168 8.97337 9.57471C8.88927 9.77773 8.86727 10.0011 8.91014 10.2167C8.95301 10.4322 9.05883 10.6302 9.21422 10.7856C9.36962 10.941 9.56759 11.0468 9.78313 11.0897C9.99866 11.1325 10.2221 11.1105 10.4251 11.0264C10.6281 10.9423 10.8017 10.7999 10.9237 10.6172C11.0458 10.4345 11.111 10.2197 11.111 9.99991C11.111 9.70522 10.9939 9.42261 10.7856 9.21424C10.5772 9.00587 10.2946 8.88881 9.99989 8.88881ZM5.99993 4.88884C5.78017 4.88884 5.56535 4.954 5.38263 5.07609C5.19991 5.19818 5.0575 5.37171 4.9734 5.57474C4.88931 5.77777 4.8673 6.00117 4.91017 6.21671C4.95305 6.43224 5.05887 6.63022 5.21426 6.78561C5.36965 6.941 5.56763 7.04682 5.78316 7.08969C5.99869 7.13257 6.2221 7.11056 6.42513 7.02646C6.62815 6.94237 6.80168 6.79996 6.92377 6.61724C7.04586 6.43452 7.11103 6.2197 7.11103 5.99994C7.11103 5.70526 6.99397 5.42265 6.78559 5.21427C6.57722 5.0059 6.29461 4.88884 5.99993 4.88884Z" fill="currentColor"/></g><g id="hpa-delete-tacho"><path d="M7 7H5V13H7V7Z" fill="currentColor"/><path d="M11 7H9V13H11V7Z" fill="currentColor"/><path d="M12 1C12 0.4 11.6 0 11 0H5C4.4 0 4 0.4 4 1V3H0V5H1V15C1 15.6 1.4 16 2 16H14C14.6 16 15 15.6 15 15V5H16V3H12V1ZM6 2H10V3H6V2ZM13 5V14H3V5H13Z" fill="currentColor"/></g><g id="mpa-signo-mobile"><path d="M16 8.14286C16 8.69514 15.5523 9.14286 15 9.14286H9.14286V15C9.14286 15.5523 8.69514 16 8.14286 16H7.85714C7.30486 16 6.85714 15.5523 6.85714 15V9.14286H1C0.447715 9.14286 0 8.69514 0 8.14286V7.85714C0 7.30486 0.447715 6.85714 1 6.85714H6.85714V1C6.85714 0.447715 7.30486 0 7.85714 0H8.14286C8.69514 0 9.14286 0.447715 9.14286 1V6.85714H15C15.5523 6.85714 16 7.30486 16 7.85714V8.14286Z" fill="#fff"/></g><svg id="logo-texto" data-name="Capa 1" width="30" height="26" viewBox="0 0 30 26" fill="none" xmlns="http://www.w3.org/2000/svg"><path d="M14.855 0C6.65058 0 0 5.40276 0 12.0697C0.0211825 13.4899 0.324569 14.8918 0.892509 16.1937C1.46045 17.4956 2.28161 18.6715 3.30821 19.6532C2.66777 21.717 1.58207 23.6151 0.127753 25.2134C0.0649099 25.2795 0.0230513 25.3628 0.00745395 25.4527C-0.00814334 25.5425 0.00321898 25.635 0.0401085 25.7185C0.07494 25.8018 0.133816 25.8729 0.209222 25.9226C0.284628 25.9724 0.373145 25.9985 0.463476 25.9977C3.4387 25.9451 6.3099 24.8941 8.6159 23.0134C10.6109 23.7612 12.7245 24.1427 14.855 24.1394C23.0594 24.1394 29.71 18.7366 29.71 12.0697C29.71 5.40276 23.0594 0 14.855 0ZM7.4275 13.9266C7.06024 13.9266 6.70124 13.8177 6.39588 13.6136C6.09051 13.4096 5.85251 13.1196 5.71197 12.7803C5.57143 12.441 5.53466 12.0676 5.6063 11.7074C5.67795 11.3472 5.8548 11.0164 6.11449 10.7567C6.37418 10.497 6.70504 10.3201 7.06524 10.2485C7.42544 10.1768 7.7988 10.2136 8.1381 10.3542C8.4774 10.4947 8.7674 10.7327 8.97144 11.0381C9.17547 11.3434 9.28438 11.7024 9.28438 12.0697C9.28457 12.3136 9.23667 12.5551 9.14343 12.7805C9.05018 13.0059 8.91341 13.2107 8.74094 13.3831C8.56848 13.5556 8.3637 13.6924 8.13833 13.7856C7.91295 13.8789 7.6714 13.9268 7.4275 13.9266ZM14.855 13.9266C14.4877 13.9266 14.1287 13.8177 13.8234 13.6136C13.518 13.4096 13.28 13.1196 13.1395 12.7803C12.9989 12.441 12.9622 12.0676 13.0338 11.7074C13.1055 11.3472 13.2823 11.0164 13.542 10.7567C13.8017 10.497 14.1325 10.3201 14.4927 10.2485C14.8529 10.1768 15.2263 10.2136 15.5656 10.3542C15.9049 10.4947 16.1949 10.7327 16.3989 11.0381C16.603 11.3434 16.7119 11.7024 16.7119 12.0697C16.7121 12.3136 16.6642 12.5551 16.5709 12.7805C16.4777 13.0059 16.3409 13.2107 16.1684 13.3831C15.996 13.5556 15.7912 13.6924 15.5658 13.7856C15.3405 13.8789 15.0989 13.9268 14.855 13.9266ZM22.2825 13.9266C21.9152 13.9266 21.5562 13.8177 21.2509 13.6136C20.9455 13.4096 20.7075 13.1196 20.567 12.7803C20.4264 12.441 20.3897 12.0676 20.4613 11.7074C20.533 11.3472 20.7098 11.0164 20.9695 10.7567C21.2292 10.497 21.56 10.3201 21.9202 10.2485C22.2804 10.1768 22.6538 10.2136 22.9931 10.3542C23.3324 10.4947 23.6224 10.7327 23.8264 11.0381C24.0305 11.3434 24.1394 11.7024 24.1394 12.0697C24.1396 12.3136 24.0917 12.5551 23.9984 12.7805C23.9052 13.0059 23.7684 13.2107 23.5959 13.3831C23.4235 13.5556 23.2187 13.6924 22.9933 13.7856C22.768 13.8789 22.5264 13.9268 22.2825 13.9266Z" fill="white"/></svg><svg id="mpa-comment" data-name="Capa 1" xmlns="http://www.w3.org/2000/svg" viewBox="0 0 26.29 23"><path id="Icon_awesome-comment-dots" data-name="Icon awesome-comment-dots" d="M13.14,0C5.88,0,0,4.78,0,10.68a9.46,9.46,0,0,0,2.93,6.71A13.09,13.09,0,0,1,.11,22.31a.4.4,0,0,0-.07.44A.4.4,0,0,0,.41,23a11.81,11.81,0,0,0,7.22-2.64,15.71,15.71,0,0,0,5.51,1c7.26,0,13.15-4.78,13.15-10.68S20.4,0,13.14,0ZM6.57,12.32a1.65,1.65,0,1,1,1.64-1.66v0h0a1.63,1.63,0,0,1-1.62,1.64h0Zm6.57,0a1.65,1.65,0,1,1,1.64-1.66v0h0a1.63,1.63,0,0,1-1.62,1.64h0Zm6.57,0a1.65,1.65,0,1,1,1.65-1.65h0a1.66,1.66,0,0,1-1.64,1.64Z" style="fill:#FFF"/></svg><svg id="mpa-location-pin" data-name="Capa 1" xmlns="http://www.w3.org/2000/svg" viewBox="0 0 18 24"><path id="Icon_awesome-map-marker-alt" data-name="Icon awesome-map-marker-alt" d="M8.07,23.52C1.26,13.64,0,12.63,0,9A9,9,0,0,1,18,9c0,3.63-1.26,4.64-8.07,14.52a1.13,1.13,0,0,1-1.57.28A1.28,1.28,0,0,1,8.07,23.52ZM9,12.75A3.75,3.75,0,1,0,5.25,9,3.75,3.75,0,0,0,9,12.75Z" style="fill:#007AB8"/></svg><svg id="mpa-location-pin-footer" data-name="Capa 1" xmlns="http://www.w3.org/2000/svg" viewBox="0 0 18 24"><path id="Icon_awesome-map-marker-alt" data-name="Icon awesome-map-marker-alt" d="M8.07,23.52C1.26,13.64,0,12.63,0,9A9,9,0,0,1,18,9c0,3.63-1.26,4.64-8.07,14.52a1.13,1.13,0,0,1-1.57.28A1.28,1.28,0,0,1,8.07,23.52ZM9,12.75A3.75,3.75,0,1,0,5.25,9,3.75,3.75,0,0,0,9,12.75Z" style="fill:#FFF"/></svg><svg id="mpa-location-footer" data-name="Capa 1" xmlns="http://www.w3.org/2000/svg" viewBox="0 0 18 24"><path id="Icon_awesome-map-marker-alt" data-name="Icon awesome-map-marker-alt" d="M8.07,23.52C1.26,13.64,0,12.63,0,9A9,9,0,0,1,18,9c0,3.63-1.26,4.64-8.07,14.52a1.13,1.13,0,0,1-1.57.28A1.28,1.28,0,0,1,8.07,23.52ZM9,12.75A3.75,3.75,0,1,0,5.25,9,3.75,3.75,0,0,0,9,12.75Z" style="fill:#FFF"/></svg><svg id="mpa-box" data-name="Capa 1" xmlns="http://www.w3.org/2000/svg" viewBox="0 0 22.33 22.33"><path id="Icon_awesome-box" data-name="Icon awesome-box" d="M22.22,8.05,20,1.43A2.11,2.11,0,0,0,18,0H11.86V8.38H22.28A1.91,1.91,0,0,0,22.22,8.05ZM10.47,0H4.3a2.09,2.09,0,0,0-2,1.43L.11,8.05a1.82,1.82,0,0,0,0,.33H10.47ZM0,9.77V20.24a2.1,2.1,0,0,0,2.09,2.09H20.24a2.08,2.08,0,0,0,2.09-2.07V9.77Z" transform="translate(0 0)" style="fill:#FFF"/></svg><svg width="20" height="20" id="mpa-camion" viewBox="0 0 53 55" fill="none" xmlns="http://www.w3.org/2000/svg"><path d="M31.563 17.75H28V13H11.375C10.7457 13.0018 10.1427 13.2527 9.69766 13.6977C9.25266 14.1427 9.00185 14.7457 9 15.375V28.438H11.375C11.3907 29.3725 11.7729 30.2634 12.4393 30.9187C13.1057 31.5741 14.0029 31.9413 14.9375 31.9413C15.8721 31.9413 16.7693 31.5741 17.4357 30.9187C18.1021 30.2634 18.4843 29.3725 18.5 28.438H25.625C25.6407 29.3725 26.0229 30.2634 26.6893 30.9187C27.3557 31.5741 28.2529 31.9413 29.1875 31.9413C30.1221 31.9413 31.0193 31.5741 31.6857 30.9187C32.3521 30.2634 32.7343 29.3725 32.75 28.438H35.125V22.5L31.563 17.75ZM14.938 30.219C14.5858 30.219 14.2414 30.1145 13.9485 29.9188C13.6556 29.7231 13.4274 29.445 13.2926 29.1196C13.1578 28.7941 13.1225 28.436 13.1912 28.0905C13.2599 27.7451 13.4296 27.4277 13.6786 27.1786C13.9277 26.9296 14.2451 26.7599 14.5905 26.6912C14.936 26.6225 15.2941 26.6578 15.6196 26.7926C15.945 26.9274 16.2231 27.1556 16.4188 27.4485C16.6145 27.7414 16.719 28.0858 16.719 28.438C16.7193 28.672 16.6734 28.9037 16.584 29.1199C16.4946 29.3361 16.3634 29.5325 16.1979 29.6979C16.0325 29.8634 15.8361 29.9946 15.6199 30.084C15.4037 30.1734 15.172 30.2193 14.938 30.219ZM30.969 19.531L33.3 22.5H28V19.531H30.969ZM29.188 30.219C28.8358 30.219 28.4914 30.1145 28.1985 29.9188C27.9056 29.7231 27.6774 29.445 27.5426 29.1196C27.4078 28.7941 27.3725 28.436 27.4412 28.0905C27.5099 27.7451 27.6796 27.4277 27.9286 27.1786C28.1777 26.9296 28.4951 26.7599 28.8405 26.6912C29.186 26.6225 29.5441 26.6578 29.8696 26.7926C30.195 26.9274 30.4731 27.1556 30.6688 27.4485C30.8645 27.7414 30.969 28.0858 30.969 28.438C30.9693 28.672 30.9234 28.9037 30.834 29.1199C30.7446 29.3361 30.6134 29.5325 30.4479 29.6979C30.2825 29.8634 30.0861 29.9946 29.8699 30.084C29.6537 30.1734 29.422 30.2193 29.188 30.219Z" fill="#007AB8"/></svg><svg width="20" height="20" id="mpa-descuento" viewBox="0 0 57 57" fill="none" xmlns="http://www.w3.org/2000/svg"><g clip-path="url(#clip0_230:3484)"><path d="M19.1208 19.1213C19.5403 18.7017 19.826 18.1672 19.9418 17.5852C20.0575 17.0033 19.9981 16.4001 19.771 15.8519C19.544 15.3038 19.1595 14.8352 18.6661 14.5056C18.1728 14.176 17.5928 14 16.9995 14C16.4061 14 15.8261 14.176 15.3328 14.5056C14.8395 14.8352 14.4549 15.3038 14.2279 15.8519C14.0008 16.4001 13.9414 17.0033 14.0571 17.5852C14.1729 18.1672 14.4586 18.7017 14.8781 19.1213C15.4408 19.6838 16.2038 19.9999 16.9995 19.9999C17.7951 19.9999 18.5581 19.6838 19.1208 19.1213ZM31.1207 26.8787C30.7012 26.4592 30.1666 26.1735 29.5847 26.0577C29.0028 25.942 28.3996 26.0014 27.8514 26.2285C27.3033 26.4555 26.8347 26.84 26.5051 27.3334C26.1755 27.8267 25.9995 28.4068 25.9995 29.0001C25.9995 29.5934 26.1755 30.1734 26.5051 30.6668C26.8347 31.1601 27.3033 31.5447 27.8514 31.7717C28.3996 31.9988 29.0028 32.0582 29.5847 31.9425C30.1666 31.8267 30.7012 31.541 31.1207 31.1215C31.6833 30.5588 31.9993 29.7957 31.9993 29.0001C31.9993 28.2044 31.6833 27.4414 31.1207 26.8787ZM31.0297 16.0303L29.9687 14.9699C29.8295 14.8306 29.6641 14.7201 29.4822 14.6447C29.3002 14.5693 29.1051 14.5305 28.9082 14.5305C28.7112 14.5305 28.5161 14.5693 28.3342 14.6447C28.1522 14.7201 27.9869 14.8306 27.8476 14.9699L14.9695 27.8491C14.8301 27.9883 14.7196 28.1537 14.6442 28.3357C14.5688 28.5176 14.53 28.7127 14.53 28.9097C14.53 29.1066 14.5688 29.3017 14.6442 29.4836C14.7196 29.6656 14.8301 29.831 14.9695 29.9702L16.0298 31.0306C16.1691 31.1699 16.3344 31.2804 16.5164 31.3558C16.6984 31.4312 16.8934 31.4701 17.0904 31.4701C17.2874 31.4701 17.4824 31.4312 17.6644 31.3558C17.8463 31.2804 18.0117 31.1699 18.1509 31.0306L31.0297 18.1516C31.1691 18.0123 31.2796 17.847 31.355 17.665C31.4304 17.483 31.4692 17.2879 31.4692 17.0909C31.4692 16.8939 31.4304 16.6989 31.355 16.5169C31.2796 16.3349 31.1691 16.1695 31.0297 16.0303Z" fill="#007AB8"/></g><defs><clipPath id="clip0_230:3484"><rect width="18" height="18" fill="white" transform="translate(14 14)"/></clipPath></defs></svg><svg id="mpa-card" data-name="Capa 1" xmlns="http://www.w3.org/2000/svg" viewBox="0 0 26.08 17.08"><path id="Icon_payment-credit-card" data-name="Icon payment-credit-card" style="fill:#007AB8;" d="M24.29,0a1.86,1.86,0,0,1,1.79,1.79v13.5a1.85,1.85,0,0,1-1.79,1.79H1.79a1.62,1.62,0,0,1-1.25-.54A1.64,1.64,0,0,1,0,15.29V1.79A1.66,1.66,0,0,1,.54.54,1.66,1.66,0,0,1,1.79,0ZM1.79,1.42c-.14,0-.22,0-.25.12a.38.38,0,0,0-.13.25v2.5H24.66V1.79a.37.37,0,0,0-.12-.25c0-.08-.11-.12-.25-.12Zm22.5,14.25c.14,0,.22-.05.25-.13a.33.33,0,0,0,.12-.25V8.54H1.42v6.75a.33.33,0,0,0,.12.25c0,.08.11.13.25.13ZM2.83,14.25V12.79H5.71v1.46Zm4.29,0V12.79h4.26v1.46Z"/></svg><svg id="mpa-facebook-nuevo" data-name="Capa 1" viewBox="0 0 10 18" fill="none" xmlns="http://www.w3.org/2000/svg"><path d="M9.03327 10.125L9.53453 6.86782H6.40065V4.75364C6.37887 4.51041 6.41219 4.26542 6.49815 4.03677C6.58411 3.80812 6.72052 3.60167 6.89728 3.43269C7.07403 3.26371 7.28663 3.13653 7.51932 3.06055C7.75202 2.98457 7.99886 2.96173 8.2416 2.99373H9.66661V0.220091C8.83004 0.0852862 7.9847 0.011726 7.13736 0C4.55725 0 2.87135 1.56027 2.87135 4.38464V6.86782H0V10.125H2.87135V18H6.39901V10.125H9.03327Z" fill="#fff"/></svg><svg id="mpa-instagram-nuevo" data-name="Capa 1" viewBox="0 0 19 18" fill="none" xmlns="http://www.w3.org/2000/svg"><path d="M9.02941 4.3824C8.11359 4.3824 7.21834 4.65324 6.45686 5.16067C5.69538 5.6681 5.10189 6.38933 4.75142 7.23316C4.40095 8.07699 4.30925 9.00551 4.48792 9.90132C4.66658 10.7971 5.10759 11.62 5.75518 12.2658C6.40276 12.9116 7.22783 13.3515 8.12605 13.5297C9.02427 13.7078 9.95531 13.6164 10.8014 13.2669C11.6475 12.9173 12.3707 12.3254 12.8795 11.566C13.3883 10.8066 13.6599 9.91374 13.6599 9.00039C13.6611 8.3936 13.5422 7.79254 13.3099 7.2317C13.0777 6.67086 12.7366 6.16128 12.3064 5.73222C11.8762 5.30315 11.3652 4.96304 10.8029 4.7314C10.2405 4.49976 9.63784 4.38116 9.02941 4.3824ZM9.02941 11.999C8.43428 11.999 7.85252 11.823 7.35769 11.4932C6.86286 11.1635 6.47719 10.6948 6.24944 10.1464C6.02169 9.5981 5.96211 8.99471 6.07821 8.41259C6.19431 7.83047 6.48089 7.29576 6.90171 6.87608C7.32253 6.45639 7.85869 6.17058 8.44238 6.05479C9.02607 5.939 9.63109 5.99843 10.1809 6.22556C10.7307 6.45269 11.2007 6.83733 11.5313 7.33082C11.862 7.82432 12.0384 8.40452 12.0384 8.99804C12.0368 9.79335 11.7192 10.5556 11.1552 11.1179C10.5913 11.6802 9.82687 11.9967 9.02941 11.9982V11.999ZM14.9258 4.19376C14.9258 4.40662 14.8625 4.6147 14.7439 4.79168C14.6254 4.96867 14.4568 5.10661 14.2596 5.18807C14.0624 5.26953 13.8455 5.29084 13.6361 5.24931C13.4268 5.20779 13.2345 5.10529 13.0836 4.95477C12.9327 4.80426 12.8299 4.61249 12.7883 4.40373C12.7466 4.19496 12.768 3.97856 12.8497 3.78191C12.9314 3.58525 13.0697 3.41717 13.2471 3.29891C13.4246 3.18066 13.6332 3.11754 13.8467 3.11754C13.9885 3.11723 14.1289 3.14485 14.26 3.19883C14.3911 3.25281 14.5102 3.33207 14.6104 3.43207C14.7107 3.53206 14.7902 3.65083 14.8443 3.78154C14.8984 3.91226 14.9261 4.05234 14.9258 4.19376ZM17.9913 5.28956C18.021 3.89004 17.4972 2.53511 16.5331 1.51768C15.5109 0.559413 14.1537 0.0375286 12.751 0.0633996C11.2599 -0.0211332 6.79344 -0.0211332 5.30385 0.0633996C3.90189 0.03446 2.5442 0.553599 1.52099 1.50985C0.558838 2.52841 0.035572 3.88265 0.0635708 5.28173C-0.0211903 6.76888 -0.0211903 11.2233 0.0635708 12.7089C0.0332968 14.1088 0.556854 15.4644 1.52099 16.4823C2.54358 17.4399 3.90055 17.9617 5.30306 17.9366C6.79423 18.0211 11.2607 18.0211 12.7503 17.9366C14.1538 17.9664 15.5127 17.444 16.5331 16.4823C17.494 15.4629 18.0173 14.1093 17.9913 12.7104C18.0761 11.2233 18.0761 6.77358 17.9913 5.28721V5.28956ZM16.0662 14.304C15.9127 14.6908 15.6813 15.042 15.3862 15.336C15.091 15.6299 14.7386 15.8602 14.3505 16.0127C13.1623 16.4823 10.3424 16.3743 9.02941 16.3743C7.7164 16.3743 4.8926 16.4823 3.7083 16.0127C3.32004 15.8599 2.96741 15.6292 2.67229 15.3349C2.37716 15.0406 2.14584 14.6889 1.99267 14.3017C1.52178 13.1167 1.63008 10.3044 1.63008 8.99491C1.63008 7.68544 1.5257 4.86924 1.99267 3.68813C2.14619 3.3015 2.37768 2.95043 2.67279 2.65665C2.9679 2.36288 3.32034 2.13266 3.7083 1.98026C4.89652 1.51063 7.7164 1.61865 9.02941 1.61865C10.3424 1.61865 13.1662 1.51455 14.3505 1.98026C14.7388 2.13301 15.0914 2.36371 15.3865 2.65804C15.6817 2.95237 15.913 3.30406 16.0662 3.69126C16.537 4.87629 16.4287 7.68857 16.4287 8.99804C16.4287 10.3075 16.537 13.1229 16.0662 14.304Z" fill="white"/></svg><svg id="mpa-twitter-nuevo" data-name="Capa 1" viewBox="0 0 23 18" fill="none" xmlns="http://www.w3.org/2000/svg"><path d="M20.6357 4.48575C20.65 4.68278 20.65 4.87924 20.65 5.07627C20.65 11.0809 15.907 18.0011 7.23665 18.0011C4.67084 18.0067 2.15794 17.2982 0 15.9607C0.377862 16.0012 0.75786 16.0204 1.13805 16.0182C3.25971 16.0234 5.32135 15.3398 6.99044 14.0777C6.00649 14.0603 5.05278 13.7471 4.26259 13.1819C3.4724 12.6167 2.88522 11.8277 2.58311 10.9252C2.87755 10.97 3.17507 10.9934 3.47316 10.9953C3.89178 10.9942 4.30859 10.9422 4.71375 10.8407C3.64639 10.6327 2.6867 10.075 1.99771 9.2624C1.30872 8.44981 0.932924 7.43243 0.934165 6.38311V6.32567C1.58751 6.67618 2.31755 6.873 3.0648 6.90011C2.06546 6.25722 1.35814 5.27133 1.08698 4.14337C0.815819 3.01541 1.00123 1.83026 1.60543 0.829452C2.78962 2.23401 4.267 3.383 5.94175 4.2019C7.6165 5.0208 9.45119 5.49132 11.3268 5.58292C11.2503 5.24079 11.2104 4.89201 11.2076 4.54204C11.2085 3.631 11.4935 2.74124 12.0255 1.98813C12.5576 1.23502 13.3121 0.653283 14.1914 0.318349C15.0707 -0.0165844 16.0341 -0.0892694 16.9567 0.109718C17.8794 0.308706 18.7187 0.770189 19.3659 1.43433C20.4208 1.23812 21.4324 0.866881 22.3556 0.337159C22.004 1.38667 21.2672 2.27657 20.2834 2.83998C21.2203 2.73734 22.136 2.50015 23 2.1363C22.3547 3.04203 21.5553 3.83633 20.6357 4.48575Z" fill="white"/></svg><svg id="mpa-facebook" data-name="Capa 1" xmlns="http://www.w3.org/2000/svg" viewBox="0 0 33.76 33.76"><path id="Icon_awesome-facebook-square-2" data-name="Icon awesome-facebook-square-2" style="fill:currentColor;" d="M30.14,0H3.62A3.62,3.62,0,0,0,0,3.62H0V30.14a3.62,3.62,0,0,0,3.62,3.62H14V22.28H9.21v-5.4H14V12.76C14,8.08,16.75,5.49,21,5.49a27.87,27.87,0,0,1,4.18.37v4.6H22.84a2.7,2.7,0,0,0-3,2.32,2.9,2.9,0,0,0,0,.59v3.51H25l-.83,5.4H19.8V33.76H30.14a3.62,3.62,0,0,0,3.62-3.62V3.62A3.62,3.62,0,0,0,30.14,0Z"/></svg><svg id="mpa-instagram" data-name="Capa 1" xmlns="http://www.w3.org/2000/svg" viewBox="0 0 36.15 36.15"><g id="Icon_feather-instagram" data-name="Icon feather-instagram"><path id="Trazado_506-2" data-name="Trazado 506-2" style="fill:none;stroke:currentColor;stroke-linecap:round;stroke-linejoin:round;stroke-width:4px;" d="M10,2H26.11a8,8,0,0,1,8,8h0V26.11a8,8,0,0,1-8,8H10a8,8,0,0,1-8-8H2V10a8,8,0,0,1,8-8Z"/><path id="Trazado_507" data-name="Trazado 507" style="fill:none;stroke:currentColor;stroke-linecap:round;stroke-linejoin:round;stroke-width:4px;" d="M24.51,17.06a6.43,6.43,0,1,1-7.3-5.42,6.58,6.58,0,0,1,1.88,0,6.43,6.43,0,0,1,5.41,5.42Z"/><path id="Trazado_508" data-name="Trazado 508" style="fill:none;stroke:currentColor;stroke-linecap:round;stroke-linejoin:round;stroke-width:4px;" d="M26.92,9.23h0"/></g></svg><svg id="mpa-twitter" data-name="Capa 1" xmlns="http://www.w3.org/2000/svg" viewBox="0 0 38.58 31.34"><path id="Icon_awesome-twitter-2" data-name="Icon awesome-twitter-2" style="fill:currentColor;" d="M34.62,7.81c0,.34,0,.68,0,1,0,10.45-8,22.5-22.5,22.5A22.43,22.43,0,0,1,0,27.79a17.33,17.33,0,0,0,1.91.1,15.94,15.94,0,0,0,9.82-3.38A7.94,7.94,0,0,1,4.33,19a9.48,9.48,0,0,0,1.5.12,8.13,8.13,0,0,0,2.08-.27,7.9,7.9,0,0,1-6.34-7.76V11a8,8,0,0,0,3.57,1A7.92,7.92,0,0,1,2.69,1.44,22.47,22.47,0,0,0,19,9.72a8.51,8.51,0,0,1-.2-1.81A7.92,7.92,0,0,1,32.49,2.5a15.65,15.65,0,0,0,5-1.91A7.9,7.9,0,0,1,34,4.94a15.63,15.63,0,0,0,4.56-1.22A16.91,16.91,0,0,1,34.62,7.81Z"/></svg><svg id="mpa-youtube" data-name="Capa 1" xmlns="http://www.w3.org/2000/svg" viewBox="0 0 50.68 35.81"><path id="Icon_awesome-youtube-2" data-name="Icon awesome-youtube-2" style="fill:currentColor;" d="M49.62,5.6a6.35,6.35,0,0,0-4.48-4.53C41.19,0,25.34,0,25.34,0S9.49,0,5.54,1.07A6.39,6.39,0,0,0,1.06,5.6C0,9.6,0,17.94,0,17.94s0,8.34,1.06,12.34a6.29,6.29,0,0,0,4.48,4.46c4,1.07,19.8,1.07,19.8,1.07s15.85,0,19.8-1.07a6.29,6.29,0,0,0,4.48-4.46c1.06-4,1.06-12.34,1.06-12.34s0-8.34-1.06-12.34ZM20.16,25.51V10.37l13.25,7.57Z"/></svg><g id="mpa-fav-outline"><path id="Icon_awesome-heart" data-name="Icon awesome-heart" d="M22.27,2.87a6.14,6.14,0,0,0-8.38.61L13,4.39l-.88-.91a6.15,6.15,0,0,0-8.39-.61A6.46,6.46,0,0,0,3.05,12l0,0,.22.24,8.69,9a1.4,1.4,0,0,0,2,.07l0,0v-.05l8.69-9a6.46,6.46,0,0,0-.2-9.12l-.24-.22Z" transform="translate(0.01 0)" style="fill:none;stroke:currentColor;stroke-linejoin:round;stroke-width:3px"/></g><g id="mpa-fav-fill"><path id="Icon_awesome-heart" data-name="Icon awesome-heart" d="M22.27,2.87a6.14,6.14,0,0,0-8.38.61L13,4.39l-.88-.91a6.15,6.15,0,0,0-8.39-.61A6.46,6.46,0,0,0,3.05,12l0,0,.22.24,8.69,9a1.4,1.4,0,0,0,2,.07l0,0v-.05l8.69-9a6.46,6.46,0,0,0-.2-9.12l-.24-.22Z" transform="translate(0.01 0)" style="fill:currentColor;stroke:currentColor;stroke-linejoin:round;stroke-width:3px"/></g><g id="hpa-cono"><path d="M3.36,16h9.32a1.08,1.08,0,0,0,1.08-1.08v-.15a1.08,1.08,0,0,0-1.08-1.07H12.5c-.32-1.2-3-11.35-3.32-12.58C9,.43,8.6,0,8.08,0A1.36,1.36,0,0,0,6.86,1.07c-.43,1.54-3,11.44-3.33,12.63H3.36a1.07,1.07,0,0,0-1.08,1.07v.15A1.08,1.08,0,0,0,3.36,16ZM5.54,8.77h4.94c.22.86.45,1.7.64,2.44H4.9C5.09,10.47,5.31,9.63,5.54,8.77Zm.83-3.14H9.65c.21.79.43,1.62.64,2.44H5.72ZM7.2,2.49H8.82c.17.66.4,1.51.64,2.45H6.55ZM8.06.7c.2,0,.36.22.45.58,0,.11.07.29.13.52H7.38q.11-.34.15-.54C7.64.89,7.88.7,8.06.7ZM4.72,11.9h6.59l.47,1.8H4.25ZM3,14.77a.38.38,0,0,1,.39-.38h9.32a.38.38,0,0,1,.38.38v.15a.38.38,0,0,1-.38.39H3.36A.38.38,0,0,1,3,14.92Z" transform="translate(-2.28 0)" style="fill:currentColor"/></g><g id="hpa-proteccion-auditiva"><path d="M2.73,14.89H4.34v-.35c0-.81,0-6.25,0-7.11V7.07H2.92V6.25a4.5,4.5,0,0,1,2.6-4,1.27,1.27,0,0,0,1.37,1H9.5a1.28,1.28,0,0,0,1.35-1,4.51,4.51,0,0,1,2.5,4v.82H11.84v.36c0,.86,0,6.3,0,7.11v.35h1.6A2.48,2.48,0,0,0,16,12.49v-3a2.43,2.43,0,0,0-1.91-2.33v-.9A5.34,5.34,0,0,0,8.66,1H7.6A5.34,5.34,0,0,0,2.19,6.25v.88a2.44,2.44,0,0,0-2,2.35v3A2.48,2.48,0,0,0,2.73,14.89ZM12.56,7.8h.3v6.37h-.3C12.55,12.86,12.55,9.12,12.56,7.8Zm2.7,1.68v3a1.74,1.74,0,0,1-1.67,1.67V7.81A1.73,1.73,0,0,1,15.26,9.48ZM8.66,1.73A4.78,4.78,0,0,1,10.14,2V2.1c0,.18-.27.37-.64.37H6.89c-.37,0-.65-.19-.65-.37V1.92A5.08,5.08,0,0,1,7.6,1.73Zm-5,12.44H3.31V7.8h.31ZM.92,9.48A1.73,1.73,0,0,1,2.59,7.81v6.35A1.74,1.74,0,0,1,.92,12.49Z" transform="translate(-0.19 -1)" style="fill:currentColor"/></g><g id="hpa-arnes"><path d="M1,10.66V14.4a1.18,1.18,0,0,0,1.17,1.17H13.63A1.18,1.18,0,0,0,14.8,14.4V7.11l0-.29-.29-.05s-1-.41-2-4.19a.3.3,0,0,0,0-.1C12.32,2,12.18,1.39,12,.75L12,.46h-.77a.31.31,0,0,0-.19,0H5.41a.33.33,0,0,0-.14,0H3.83L3.77.75c-.14.64-.28,1.21-.41,1.72a.42.42,0,0,0,0,.12c-1,3.77-2,4.17-2,4.17L1,6.82v3.66s0,.06,0,.09S1,10.63,1,10.66ZM4.4,1.22l2.21,9H5.93L4.06,2.64C4.17,2.2,4.29,1.73,4.4,1.22ZM14.07,12H8.33V10.93h5.74Zm-6.72-1.8-2.2-9L7.4,5.7l0,0a.83.83,0,0,0,.16.12v4.35Zm1-4.31a.82.82,0,0,0,.22-.16l0,0,2-4.28L8.4,10.21H8.33Zm.81,4.31,2.26-9c.12.52.23,1,.35,1.44L9.87,10.21ZM8,5.24H8L5.93,1.18h4ZM7.6,10.93V12H1.74V10.93ZM1.74,14.4V12.73H7.6v2.11H2.18A.44.44,0,0,1,1.74,14.4Zm11.89.44H8.33V12.73h5.74V14.4A.43.43,0,0,1,13.63,14.84Zm.44-7.5v2.87H10.62L12.16,4C12.92,6.3,13.66,7.08,14.07,7.34ZM3.65,4l1.54,6.21H1.74V7.34C2.15,7.08,2.89,6.3,3.65,4Z" transform="translate(-1 -0.44)" style="fill:currentColor"/></g><g id="hpa-botas"><path d="M3.63,14.25v1.13a.63.63,0,0,0,.64.62H8.44c1,0,1.29-.13,1.44-.24l0,0,.63-.82H11v.44a.64.64,0,0,0,.64.63H13.8a.64.64,0,0,0,.55-.21.57.57,0,0,0,.1-.46V14.22h0l-.18-3.35.57-9.07h-3L11.92.05H5.43V.4c0,.08.38,7.49.35,8.65,0,.46-.5.55-1.61.66-1.41.13-3.54.33-3.45,3v.9a.63.63,0,0,0,.64.62Zm.07-.68H1.41v-.4h2.4A3.84,3.84,0,0,0,3.7,13.57Zm5.76,1.65a3.18,3.18,0,0,1-1,.1H4.31v-.39l5.39,0Zm4.31.08H11.71v-.39h2.06Zm-2.32-1.07H4.31c0-1.7,1.15-1.94,2.83-2.1,1-.1,2.21-.21,2.23-1.32,0-.79-.13-4.25-.24-6.56H14l-.42,6.58v0l.18,3.36ZM14,3.57H9.1c0-.45,0-.83-.06-1.09H14.1ZM11.2.73,11.13,1.8H8.33l-2.14,0c0-.46,0-.84-.05-1.09Zm-7,9.65c1-.09,2.2-.2,2.23-1.31,0-.79-.13-4.25-.24-6.57l2.13,0c.07,1.45.36,7.31.33,8.32,0,.46-.5.55-1.61.66a4.2,4.2,0,0,0-2.87,1H1.41C1.44,10.78,2.56,10.54,4.24,10.38Z" transform="translate(-0.72 -0.05)" style="fill:currentColor"/></g><g id="hpa-matafuegos"><path d="M12.74,3.12V.22L9,.91A.64.64,0,0,0,8.34.42H7.56l-.14,0H3.58a.64.64,0,0,0-.66.64v.28A.66.66,0,0,0,3.58,2H4.82l-1.66.35A.32.32,0,0,0,3.23,3h.06l3.63-.78v.45a.69.69,0,0,0-.54.67v.44a1.79,1.79,0,0,0-1.23,1.7v8.73A1.79,1.79,0,0,0,6.94,16h2a1.79,1.79,0,0,0,1.79-1.79V5.48a1.81,1.81,0,0,0-1.1-1.66V3.34A.69.69,0,0,0,9,2.65v-.2Zm-.65-.78L9,1.79V1.56L12.09,1Zm-3.76.31H7.57V1.07h.77ZM3.56,1.35l0-.27H6.92v.28Zm6.52,9.77H5.8V7.75h4.28ZM8.93,15.36h-2A1.15,1.15,0,0,1,5.8,14.21V11.77h4.28v2.44A1.16,1.16,0,0,1,8.93,15.36Zm1.15-9.88V7.1H5.8V5.48A1.15,1.15,0,0,1,6.94,4.33h2A1.16,1.16,0,0,1,10.08,5.48ZM8.93,3.69H7V3.34a0,0,0,0,1,0,0H8.93a0,0,0,0,1,0,0v.35Z" transform="translate(-2.9 -0.22)" style="fill:currentColor"/></g><g id="hpa-casco"><path d="M15.55,10.52H14.48c0-3-1.44-5.22-3.85-6.19l-.06,0V3.93A.61.61,0,0,0,10,3.31H6.62A.62.62,0,0,0,6,3.93v.31H6c-2.51.9-4,3.24-4.05,6.27H.83a.27.27,0,0,0,0,.54H1.4c.33,1.11,3.72,1.62,6.88,1.62s6.54-.51,6.87-1.62h.4a.27.27,0,0,0,0-.54Zm-1.62,0H10.61L12.17,6A6.26,6.26,0,0,1,13.93,10.52Zm-2.2-4.94a.05.05,0,0,0,0,0l-1.14,3.3v-4A5.35,5.35,0,0,1,11.73,5.58ZM6.55,3.93a.07.07,0,0,1,.07-.07H10a.08.08,0,0,1,.07.07v6.58H6.55ZM6,4.82V9.55L4.65,5.62s0,0,0,0A5.3,5.3,0,0,1,6,4.82ZM4.19,6l1.57,4.55H2.44A6.32,6.32,0,0,1,4.19,6Zm4.09,6.16c-3.59,0-5.76-.62-6.25-1.07H14.52C14,11.51,11.87,12.13,8.28,12.13Z" transform="translate(-0.56 -3.31)" style="fill:currentColor"/></g><g id="hpa-proteccion-visual"><path d="M11.44,6.64H4.56A1.45,1.45,0,0,0,3.11,8.1v.63a1.45,1.45,0,0,0,1.44,1.46h0a2.88,2.88,0,0,0,2.28-.91A1.5,1.5,0,0,1,7.93,8.7a2.06,2.06,0,0,1,1.29.61,3.18,3.18,0,0,0,2.19.88h0A1.47,1.47,0,0,0,12.9,8.73V8.1A1.46,1.46,0,0,0,11.44,6.64Zm-6.88.55h.38L3.66,8.66V8.1A.91.91,0,0,1,4.56,7.19ZM3.85,9.28l1.74-2a.33.33,0,0,0,.06-.1h.83L4.43,9.63a.87.87,0,0,1-.51-.26A.35.35,0,0,1,3.85,9.28Zm8.5-.55a.92.92,0,0,1-.91.91h0a2.66,2.66,0,0,1-1.85-.76,2.53,2.53,0,0,0-1.63-.73,2,2,0,0,0-1.48.73,2.17,2.17,0,0,1-1.25.7L7.12,7.29a.19.19,0,0,0,0-.1h4.27a.91.91,0,0,1,.91.91Z" transform="translate(-0.82 -5.38)" style="fill:currentColor"/><path d="M14.51,7.13H14a2.72,2.72,0,0,0-2.54-1.75H4.56A2.73,2.73,0,0,0,2,7.13H1.46a.64.64,0,0,0-.64.64v1.4a.64.64,0,0,0,.64.64h.61a2.7,2.7,0,0,0,.56.83,2.66,2.66,0,0,0,1.91.81h0a4.13,4.13,0,0,0,3.13-1.26A2.46,2.46,0,0,1,8,10a2.42,2.42,0,0,1,.47.33,4.44,4.44,0,0,0,3,1.15h0a2.76,2.76,0,0,0,2.49-1.64h.57a.64.64,0,0,0,.64-.64V7.77A.64.64,0,0,0,14.51,7.13Zm-13,2.12a.08.08,0,0,1-.09-.08V7.77a.09.09,0,0,1,.09-.09h.42a3,3,0,0,0,0,.42v.63a2.24,2.24,0,0,0,0,.52Zm10,1.65h0a3.86,3.86,0,0,1-2.64-1,1.52,1.52,0,0,0-.83-.46c-.21,0-.35.13-.61.38A3.55,3.55,0,0,1,4.57,10.9h0A2.13,2.13,0,0,1,3,10.26,2.17,2.17,0,0,1,2.4,8.73V8.1A2.17,2.17,0,0,1,4.56,5.93h6.88A2.17,2.17,0,0,1,13.61,8.1v.63A2.18,2.18,0,0,1,11.45,10.9ZM14.6,9.17a.08.08,0,0,1-.09.08h-.4a2.87,2.87,0,0,0,.05-.52V8.1a3,3,0,0,0,0-.42h.38a.09.09,0,0,1,.09.09Z" transform="translate(-0.82 -5.38)" style="fill:currentColor"/></g><g id="hpa-guantes"><path d="M14.82,9.17a.69.69,0,0,0-.25-.48l-.46-.39a.71.71,0,0,0-1,.07l-.62.68V5.69c0-.4-1.25-1.5-2.56-1.82V3c0-.47-1.73-1.91-3.26-1.91C4.83,1.08,3.24,2.53,3.24,3V6.45l-.71-.77a.71.71,0,0,0-1-.08L1.07,6a.73.73,0,0,0-.25.48A.76.76,0,0,0,1,7L3.11,9.44a.22.22,0,0,0,.13.08V12a.65.65,0,0,0,.65.65H5.8v2.05a.65.65,0,0,0,.65.65h5.4a.65.65,0,0,0,.65-.65V12.17l0,0,2.11-2.45A.71.71,0,0,0,14.82,9.17Zm-3-3.41V13H6.43V5.75a3.58,3.58,0,0,1,.83-.7V8.84a.32.32,0,0,0,.63,0V4.71a3.44,3.44,0,0,1,1-.27v4.4a.32.32,0,0,0,.63,0V4.43a3.48,3.48,0,0,1,1,.32V8.84a.32.32,0,0,0,.63,0V5.12A3.92,3.92,0,0,1,11.87,5.76Zm-5-4a3.09,3.09,0,0,1,1.06.32s0,0,0,.06V4a4.65,4.65,0,0,0-1,.51ZM9.3,3.06v.73H9.25a3.74,3.74,0,0,0-.68.06V2.42A3.76,3.76,0,0,1,9.3,3.06ZM4.57,2.43V6.14a.32.32,0,0,0,.63,0V2.07a3.48,3.48,0,0,1,1-.32V5a1.21,1.21,0,0,0-.45.67v4.63H3.87V3.05A3.43,3.43,0,0,1,4.57,2.43ZM1.47,6.58a.14.14,0,0,1,0-.06s0,0,0,0l.46-.39a.07.07,0,0,1,.11,0l1.1,1.19a.24.24,0,0,0,.09.06V8.62ZM3.87,12V11H5.8V12Zm8,2.72-5.42,0V13.66h5.44v1.05Zm2.32-5.45L12.5,11.22V10l1.1-1.2a.07.07,0,0,1,.05,0,.08.08,0,0,1,.06,0l.45.39A.07.07,0,0,1,14.17,9.28Z" transform="translate(-0.82 -1.08)" style="fill:currentColor"/></g><g id="hpa-proteccion-respiratoria"><path d="M4.08,8.73h0a6.57,6.57,0,0,0,1.59-.21,2.33,2.33,0,0,0,.06.53L4.66,10.2,4.42,10a1.41,1.41,0,0,0-2,0l-.4.4a1.43,1.43,0,0,0-.43,1,1.47,1.47,0,0,0,.41,1L3.83,14.2a1.41,1.41,0,0,0,2,0l.4-.39a1.42,1.42,0,0,0,0-2L6,11.59l.91-.91a2.55,2.55,0,0,0,2.63,0l.87.88-.22.23a1.42,1.42,0,0,0,0,2l.4.39a1.43,1.43,0,0,0,1,.41,1.39,1.39,0,0,0,1-.43l1.84-1.86a1.43,1.43,0,0,0,0-2l-.4-.4a1.43,1.43,0,0,0-1-.41,1.39,1.39,0,0,0-1,.43l-.25.25-1-1.07a2.57,2.57,0,0,0,.08-.62,5.46,5.46,0,0,0,1.54.22h.06a3.31,3.31,0,0,0,3.27-3.29V4.67a3.28,3.28,0,0,0-3.28-3.29H4.11A3.29,3.29,0,0,0,.82,4.67v.77a3.28,3.28,0,0,0,1,2.31A3.19,3.19,0,0,0,4.08,8.73Zm1.7,4.62-.4.4a.78.78,0,0,1-1.07,0L2.47,11.87a.76.76,0,0,1,0-1.07l.4-.39a.76.76,0,0,1,1.07,0l1.84,1.87A.76.76,0,0,1,5.78,13.35Zm-.65-2.68L6,9.73a2.17,2.17,0,0,0,.38.52l-.86.86ZM6.38,8.49a1.91,1.91,0,1,1,1.9,1.91A1.91,1.91,0,0,1,6.38,8.49Zm6.69,1.7a.75.75,0,0,1,.53.22l.4.39a.76.76,0,0,1,0,1.07l-1.84,1.87a.78.78,0,0,1-1.07,0l-.4-.4a.76.76,0,0,1,0-1.07l1.84-1.87A.77.77,0,0,1,13.07,10.19Zm-1.73.48-.43.44-.81-.81a2.69,2.69,0,0,0,.39-.5Zm-9.85-6A2.62,2.62,0,0,1,4.11,2h8.33a2.63,2.63,0,0,1,2.62,2.63v.77a2.64,2.64,0,0,1-2.62,2.62h0a4.56,4.56,0,0,1-1.64-.29,2.57,2.57,0,0,0-4.93,0,5.56,5.56,0,0,1-1.7.27h0a2.55,2.55,0,0,1-1.84-.77,2.63,2.63,0,0,1-.75-1.85Z" transform="translate(-0.82 -1.38)" style="fill:currentColor"/><path d="M4.1,7.2h0A3.5,3.5,0,0,0,6.86,6.1a1.89,1.89,0,0,1,1.32-.71,2.51,2.51,0,0,1,1.56.74A3.86,3.86,0,0,0,12.39,7.2h0A1.78,1.78,0,0,0,14.2,5.44V4.67a1.76,1.76,0,0,0-1.76-1.76H4.11A1.76,1.76,0,0,0,2.35,4.67v.77a1.74,1.74,0,0,0,.51,1.24A1.71,1.71,0,0,0,4.1,7.2ZM3,4.67a1.09,1.09,0,0,1,1.09-1.1h8.33a1.09,1.09,0,0,1,1.09,1.1v.77a1.09,1.09,0,0,1-1.1,1.09h0a3.22,3.22,0,0,1-2.24-.92,3.11,3.11,0,0,0-2-.88,2.49,2.49,0,0,0-1.78.89,2.84,2.84,0,0,1-2.32.91,1.06,1.06,0,0,1-.75-.31A1.13,1.13,0,0,1,3,5.44Z" transform="translate(-0.82 -1.38)" style="fill:currentColor"/></g><g id="hpa-cartel-prohibido"><path d="M9,2.48A1,1,0,0,0,8.05,2a1,1,0,0,0-.92.53L1,13.15a1,1,0,0,0,0,1.06,1,1,0,0,0,.92.53H14.21a1.06,1.06,0,0,0,.92-1.59Zm5.64,11.43a.48.48,0,0,1-.4.23H1.89a.46.46,0,0,1-.4-.23.47.47,0,0,1,0-.46L7.65,2.78a.46.46,0,0,1,.4-.23.48.48,0,0,1,.4.23l6.16,10.67A.47.47,0,0,1,14.61,13.91Z" transform="translate(-0.82 -1.95)" style="fill:currentColor"/><path d="M10.82,8.18l-.8-.8a.48.48,0,0,0-.67,0L8.09,8.64,6.84,7.38a.5.5,0,0,0-.68,0l-.8.8a.48.48,0,0,0-.14.34.47.47,0,0,0,.14.33l1.26,1.26L5.36,11.37a.47.47,0,0,0-.14.33.48.48,0,0,0,.14.34l.8.8a.5.5,0,0,0,.68,0l1.25-1.26,1.26,1.26a.48.48,0,0,0,.34.14.47.47,0,0,0,.33-.14l.8-.8a.47.47,0,0,0,0-.67L9.56,10.11l1.26-1.26A.47.47,0,0,0,10.82,8.18ZM8.71,10.11,10.3,11.7l-.61.62-1.6-1.59L6.5,12.32l-.62-.62,1.6-1.59L5.88,8.52,6.5,7.9,8.09,9.49,9.69,7.9l.61.62Z" transform="translate(-0.82 -1.95)" style="fill:currentColor"/></g><g id="hpa-proteccion-facial"><path d="M12.89.25H3.27a.8.8,0,0,0-.8.8V3.51H1.86a.7.7,0,0,0-.7.7V6.05a.7.7,0,0,0,.7.69h.61v4.43A4.83,4.83,0,0,0,7.3,16H8.87a4.83,4.83,0,0,0,4.83-4.83V6.74h.66a.69.69,0,0,0,.69-.69V4.21a.69.69,0,0,0-.69-.7H13.7V1.05A.8.8,0,0,0,12.89.25ZM1.88,6V4.23h.59V6ZM13,11.17a4.11,4.11,0,0,1-4.11,4.11H7.3a4.12,4.12,0,0,1-4.12-4.11V1.05A.09.09,0,0,1,3.27,1h9.62a.09.09,0,0,1,.09.08Zm1.36-6.94V6H13.7V4.23Z" transform="translate(-1.16 -0.25)" style="fill:currentColor"/><path d="M11,3H5.17a.81.81,0,0,0-.81.81V6.68a.81.81,0,0,0,.81.81H11a.81.81,0,0,0,.81-.81V3.79A.81.81,0,0,0,11,3ZM5.17,3.7H6.55L5.08,5.62V3.79A.09.09,0,0,1,5.17,3.7Zm0,3.05,2.32-3h.69L5.87,6.77h-.7Zm6-.07a.09.09,0,0,1-.09.09H6.77L9,3.71h2a.09.09,0,0,1,.09.09Z" transform="translate(-1.16 -0.25)" style="fill:currentColor"/></g><g id="hpa-ropa"><path d="M5.27,10.14H9.18V7H5.27Zm.64-2.52H8.54V9.5H5.91Z" transform="translate(-0.78 0)" style="fill:currentColor"/><path d="M11.21,6.74h-.08c-.29-.09-1.22-.62-1.3-3.42h0a2.44,2.44,0,0,0,0-.27V3h0C9.71.94,8.52,0,7.33,0,6,0,5,1.13,4.81,3h0v.32c0,2.56-.86,3.26-1.2,3.44a.29.29,0,0,0-.16,0A3,3,0,0,0,1.13,8c-.54.87-.46,2.08.22,3.6a.3.3,0,0,0,.29.19.31.31,0,0,0,.13,0,.33.33,0,0,0,.16-.43c-.59-1.3-.67-2.31-.26-3a2.26,2.26,0,0,1,1.49-.91v7.1a.8.8,0,0,0,.8.8h6.76a.8.8,0,0,0,.8-.8V7.43A2.18,2.18,0,0,1,13,8.32c.42.69.33,1.7-.25,3a.32.32,0,0,0,.16.43.28.28,0,0,0,.13,0,.31.31,0,0,0,.29-.19c.68-1.52.75-2.73.21-3.6A3,3,0,0,0,11.21,6.74ZM7.33.64C8.39.64,9.09,1.57,9.18,3H5.46C5.63,1.51,6.31.64,7.33.64Zm3.55,13.88a.16.16,0,0,1-.16.16H4a.16.16,0,0,1-.16-.16V7.38c.5-.22,1.49-1,1.62-3.72H9.2c.15,2.76,1.16,3.49,1.68,3.68Z" transform="translate(-0.78 0)" style="fill:currentColor"/></g><g id="hpa-cartel-warning"><path d="M9.28,1.77a1.11,1.11,0,0,0-1-.55,1.09,1.09,0,0,0-1,.55L1,12.85A1.08,1.08,0,0,0,1,14a1.1,1.1,0,0,0,1,.56H14.72a1.11,1.11,0,0,0,.95-1.66Zm5.85,11.87a.47.47,0,0,1-.41.24H1.93a.49.49,0,0,1-.42-.24.51.51,0,0,1,0-.48L7.91,2.09a.47.47,0,0,1,.41-.24.49.49,0,0,1,.42.24l6.39,11.07A.46.46,0,0,1,15.13,13.64Z" transform="translate(-0.82 -1.22)" style="fill:currentColor"/><path d="M8.89,4.7H7.8a.54.54,0,0,0-.53.54l.15,5.16a.53.53,0,0,0,.53.53h.79a.53.53,0,0,0,.53-.52l.15-5.18A.53.53,0,0,0,8.89,4.7Zm-.25,5.6H8.05l-.15-5h.89Z" transform="translate(-0.82 -1.22)" style="fill:currentColor"/><path d="M8.76,11.29H7.93a.53.53,0,0,0-.53.53v.83a.53.53,0,0,0,.53.53h.83a.53.53,0,0,0,.53-.53v-.83A.53.53,0,0,0,8.76,11.29Zm-.1,1.26H8v-.63h.63Z" transform="translate(-0.82 -1.22)" style="fill:currentColor"/></g><g id="hpa-luz"><path d="M11.36,12.37v-5A3.46,3.46,0,0,0,7.9,3.87H7.83A3.46,3.46,0,0,0,4.37,7.33v5.05A1.64,1.64,0,0,0,3,14v.39a.58.58,0,0,0,.57.58h8.63a.58.58,0,0,0,.58-.58V14A1.64,1.64,0,0,0,11.36,12.37ZM7.83,4.59H7.9a2.74,2.74,0,0,1,2.74,2.74v5H9.26c0-1.66-.35-4.14-1.38-4.14s-1.36,2.48-1.39,4.14H5.09v-5A2.74,2.74,0,0,1,7.83,4.59Zm.71,7.76H7.21c0-2,.42-3.19.67-3.4A6.53,6.53,0,0,1,8.54,12.35Zm3.52,1.89H3.73V14a.93.93,0,0,1,.92-.92h6.49a.92.92,0,0,1,.92.92Z" transform="translate(-0.82 -1.03)" style="fill:currentColor"/><path d="M14.46,7.35H12.35a.36.36,0,0,0,0,.72h2.11a.36.36,0,1,0,0-.72Z" transform="translate(-0.82 -1.03)" style="fill:currentColor"/><path d="M11.48,5.41a.36.36,0,0,0,.22-.07L13.41,4.1A.37.37,0,1,0,13,3.51L11.27,4.76a.36.36,0,0,0,.21.65Z" transform="translate(-0.82 -1.03)" style="fill:currentColor"/><path d="M9.22,3.77a.36.36,0,0,0,.34-.25l.66-2a.36.36,0,0,0-.69-.23l-.65,2a.37.37,0,0,0,.23.46Z" transform="translate(-0.82 -1.03)" style="fill:currentColor"/><path d="M6.42,3.77l.12,0a.37.37,0,0,0,.23-.46l-.66-2a.35.35,0,0,0-.45-.23.37.37,0,0,0-.23.46l.65,2A.36.36,0,0,0,6.42,3.77Z" transform="translate(-0.82 -1.03)" style="fill:currentColor"/><path d="M4,5.34a.33.33,0,0,0,.21.07.36.36,0,0,0,.21-.65L2.66,3.51a.36.36,0,0,0-.42.59Z" transform="translate(-0.82 -1.03)" style="fill:currentColor"/><path d="M3.66,7.71a.36.36,0,0,0-.36-.36H1.18a.36.36,0,0,0,0,.72H3.3A.36.36,0,0,0,3.66,7.71Z" transform="translate(-0.82 -1.03)" style="fill:currentColor"/></g><g id="hpa-botiquin"><path d="M13.78,4.26H11.49V3A1.69,1.69,0,0,0,9.81,1.35H6.52A1.69,1.69,0,0,0,4.83,3V4.26H2.39a2,2,0,0,0-2,2v6.77a2,2,0,0,0,2,2H13.78a2,2,0,0,0,2-2V6.3A2,2,0,0,0,13.78,4.26ZM12.28,5v9.46H3.82V5ZM9.66,4.26h-3V3.69a.4.4,0,0,1,.41-.4H9.25a.4.4,0,0,1,.41.4ZM5.52,3a1,1,0,0,1,1-1H9.81a1,1,0,0,1,1,1V4.26h-.45V3.69A1.09,1.09,0,0,0,9.25,2.6H7.08A1.09,1.09,0,0,0,6,3.69v.57H5.52Zm-4.47,10V6.3A1.35,1.35,0,0,1,2.39,5h.74v9.46H2.39A1.34,1.34,0,0,1,1.05,13.07Zm14.08,0a1.34,1.34,0,0,1-1.35,1.34H13V5h.81A1.35,1.35,0,0,1,15.13,6.3Z" transform="translate(-0.36 -1.35)" style="fill:currentColor"/><path d="M5.32,11.24h1.3v1.3a.72.72,0,0,0,.72.72H8.85a.73.73,0,0,0,.73-.72v-1.3h1.3a.73.73,0,0,0,.72-.73V9a.72.72,0,0,0-.72-.72H9.58V7a.73.73,0,0,0-.73-.73H7.34A.73.73,0,0,0,6.62,7v1.3H5.32A.73.73,0,0,0,4.59,9v1.51A.73.73,0,0,0,5.32,11.24ZM5.28,9s0,0,0,0h2V7s0,0,0,0H8.85a0,0,0,0,1,0,0V9h2a0,0,0,0,1,0,0v1.51s0,0,0,0h-2v2s0,0,0,0H7.34a0,0,0,0,1,0,0v-2h-2a0,0,0,0,1,0,0Z" transform="translate(-0.36 -1.35)" style="fill:currentColor"/></g><g id="hpa-equipos-instrumentacion"><path d="M15.48,6.74H14.16l0-.13L15.33,6a.44.44,0,0,0,.23-.27.43.43,0,0,0,0-.35l-.75-1.56a.47.47,0,0,0-.62-.21L13,4.21l-.09-.11.83-1a.45.45,0,0,0-.08-.65L12.3,1.33a.49.49,0,0,0-.66.07l-.82,1-.13-.06L11,1.08a.44.44,0,0,0-.06-.35.48.48,0,0,0-.29-.21L9,.14h-.1a.47.47,0,0,0-.46.36L8.1,1.78H8L7.66.49A.46.46,0,0,0,7.21.13L5.42.52a.47.47,0,0,0-.29.21.43.43,0,0,0-.06.35l.29,1.29-.12.06-.83-1a.48.48,0,0,0-.66-.07L2.41,2.39a.49.49,0,0,0-.18.32.47.47,0,0,0,.1.34l.83,1-.09.11-1.2-.58a.47.47,0,0,0-.62.22L.5,5.39a.5.5,0,0,0,0,.36A.47.47,0,0,0,.72,6l1.19.58,0,.14H.55a.46.46,0,0,0-.46.46V8.92a.45.45,0,0,0,.46.46H1.87s0,.1,0,.14l-1.2.58a.47.47,0,0,0-.22.62l.75,1.56a.48.48,0,0,0,.62.21l1.2-.57.09.11-.83,1a.43.43,0,0,0-.1.34.41.41,0,0,0,.17.31L3.74,14.8a.49.49,0,0,0,.66-.08l.82-1,.13.06L5.05,15a.5.5,0,0,0,.06.36.46.46,0,0,0,.29.2L7.09,16h.1a.45.45,0,0,0,.45-.36l.3-1.29h.14l.3,1.29a.45.45,0,0,0,.45.36l1.79-.39a.47.47,0,0,0,.29-.21.53.53,0,0,0,.06-.35l-.3-1.29.13-.06.83,1a.47.47,0,0,0,.65.07l1.35-1.07a.47.47,0,0,0,.08-.66l-.83-1,.09-.11,1.19.58a.49.49,0,0,0,.63-.22l.75-1.55a.48.48,0,0,0-.22-.63l-1.19-.57,0-.14h1.32A.47.47,0,0,0,16,8.94V7.21A.47.47,0,0,0,15.48,6.74Zm-.31,1.88H13.9a.46.46,0,0,0-.46.39c0,.19-.08.38-.13.57a.46.46,0,0,0,.24.55l1.15.55-.48,1-1.15-.55a.48.48,0,0,0-.58.14,5.9,5.9,0,0,1-.37.47.46.46,0,0,0,0,.6l.79,1L12,14l-.79-1a.47.47,0,0,0-.59-.12l-.53.26a.46.46,0,0,0-.28.53l.29,1.24-1.07.24-.29-1.24a.46.46,0,0,0-.47-.36H7.69a.47.47,0,0,0-.46.36L7,15.16l-1.07-.25.29-1.24a.47.47,0,0,0-.28-.53c-.18-.08-.35-.16-.53-.26a.48.48,0,0,0-.59.12L4,14l-.86-.68.8-1a.47.47,0,0,0,0-.6,4.32,4.32,0,0,1-.36-.46A.49.49,0,0,0,3,11.1l-1.14.55-.48-1,1.15-.56a.45.45,0,0,0,.24-.54c-.05-.19-.09-.39-.13-.58a.46.46,0,0,0-.45-.39H.87V7.51H2.14a.47.47,0,0,0,.46-.39,3.9,3.9,0,0,1,.13-.57A.47.47,0,0,0,2.48,6L1.34,5.45l.48-1L3,5a.48.48,0,0,0,.59-.15c.11-.16.24-.31.36-.46a.46.46,0,0,0,0-.6l-.79-1L4,2.13l.8,1a.48.48,0,0,0,.59.12A5.2,5.2,0,0,1,5.91,3a.45.45,0,0,0,.27-.53L5.9,1.21,7,1l.28,1.24a.48.48,0,0,0,.48.36h.62a.46.46,0,0,0,.45-.36L9.08,1l1.07.25L9.87,2.46a.46.46,0,0,0,.27.53,5.2,5.2,0,0,1,.53.26.49.49,0,0,0,.59-.12l.8-1,.85.68-.79,1a.47.47,0,0,0,0,.6,4.37,4.37,0,0,1,.37.46.48.48,0,0,0,.58.15l1.15-.55.47,1L13.56,6a.45.45,0,0,0-.25.54,4,4,0,0,1,.13.58.47.47,0,0,0,.46.39h1.27Z" transform="translate(-0.09 -0.13)" style="fill:currentColor"/><path d="M8,3.8A4.21,4.21,0,1,0,12.23,8,4.22,4.22,0,0,0,8,3.8Zm0,7.64A3.43,3.43,0,1,1,11.45,8,3.44,3.44,0,0,1,8,11.44Z" transform="translate(-0.09 -0.13)" style="fill:currentColor"/><path d="M8,5.11A2.91,2.91,0,1,0,10.92,8,2.91,2.91,0,0,0,8,5.11Zm0,5A2.12,2.12,0,1,1,10.14,8,2.12,2.12,0,0,1,8,10.13Z" transform="translate(-0.09 -0.13)" style="fill:currentColor"/></g><g id="inf-shipping"><circle id="Elipse_24" data-name="Elipse 24" cx="6.62" cy="6.62" r="6.62" style="fill: #eee"/><path id="truck-fast" d="M11,14.52l-.33-.66H13l-.26-.66H10.53l-.33-.66h3.44l-.26-.66H10.14l-.39-.67h1.66a.88.88,0,0,1,.89-.88h5.3V12.1h1.32l1.33,1.76v2.21h-.89a1.33,1.33,0,0,1-2.65,0H15a1.33,1.33,0,0,1-2.65,0h-.89V14.52H11M18,16.73a.66.66,0,1,0-.66-.66.66.66,0,0,0,.66.66m.66-4H17.6v1.1h2l-.86-1.1m-5.08,4a.66.66,0,1,0-.66-.66A.65.65,0,0,0,13.62,16.73Z" transform="translate(-8.38 -6.8)" style="fill: #909294"/></g></defs></svg>