<svg id="mpa-youtube" data-name="Capa 1" xmlns="http://www.w3.org/2000/svg" viewBox="0 0 50.68 35.81"><path id="Icon_awesome-youtube-2" data-name="Icon awesome-youtube-2" style="fill:currentColor;" d="M49.62,5.6a6.35,6.35,0,0,0-4.48-4.53C41.19,0,25.34,0,25.34,0S9.49,0,5.54,1.07A6.39,6.39,0,0,0,1.06,5.6C0,9.6,0,17.94,0,17.94s0,8.34,1.06,12.34a6.29,6.29,0,0,0,4.48,4.46c4,1.07,19.8,1.07,19.8,1.07s15.85,0,19.8-1.07a6.29,6.29,0,0,0,4.48-4.46c1.06-4,1.06-12.34,1.06-12.34s0-8.34-1.06-12.34ZM20.16,25.51V10.37l13.25,7.57Z"/></svg>