<svg id="mpa-twitter-nuevo" data-name="Capa 1" viewBox="0 0 23 18" fill="none" xmlns="http://www.w3.org/2000/svg"><path d="M20.6357 4.48575C20.65 4.68278 20.65 4.87924 20.65 5.07627C20.65 11.0809 15.907 18.0011 7.23665 18.0011C4.67084 18.0067 2.15794 17.2982 0 15.9607C0.377862 16.0012 0.75786 16.0204 1.13805 16.0182C3.25971 16.0234 5.32135 15.3398 6.99044 14.0777C6.00649 14.0603 5.05278 13.7471 4.26259 13.1819C3.4724 12.6167 2.88522 11.8277 2.58311 10.9252C2.87755 10.97 3.17507 10.9934 3.47316 10.9953C3.89178 10.9942 4.30859 10.9422 4.71375 10.8407C3.64639 10.6327 2.6867 10.075 1.99771 9.2624C1.30872 8.44981 0.932924 7.43243 0.934165 6.38311V6.32567C1.58751 6.67618 2.31755 6.873 3.0648 6.90011C2.06546 6.25722 1.35814 5.27133 1.08698 4.14337C0.815819 3.01541 1.00123 1.83026 1.60543 0.829452C2.78962 2.23401 4.267 3.383 5.94175 4.2019C7.6165 5.0208 9.45119 5.49132 11.3268 5.58292C11.2503 5.24079 11.2104 4.89201 11.2076 4.54204C11.2085 3.631 11.4935 2.74124 12.0255 1.98813C12.5576 1.23502 13.3121 0.653283 14.1914 0.318349C15.0707 -0.0165844 16.0341 -0.0892694 16.9567 0.109718C17.8794 0.308706 18.7187 0.770189 19.3659 1.43433C20.4208 1.23812 21.4324 0.866881 22.3556 0.337159C22.004 1.38667 21.2672 2.27657 20.2834 2.83998C21.2203 2.73734 22.136 2.50015 23 2.1363C22.3547 3.04203 21.5553 3.83633 20.6357 4.48575Z" fill="white"/></svg>