<svg id="mpa-facebook" data-name="Capa 1" xmlns="http://www.w3.org/2000/svg" viewBox="0 0 33.76 33.76"><path id="Icon_awesome-facebook-square-2" data-name="Icon awesome-facebook-square-2" style="fill:currentColor;" d="M30.14,0H3.62A3.62,3.62,0,0,0,0,3.62H0V30.14a3.62,3.62,0,0,0,3.62,3.62H14V22.28H9.21v-5.4H14V12.76C14,8.08,16.75,5.49,21,5.49a27.87,27.87,0,0,1,4.18.37v4.6H22.84a2.7,2.7,0,0,0-3,2.32,2.9,2.9,0,0,0,0,.59v3.51H25l-.83,5.4H19.8V33.76H30.14a3.62,3.62,0,0,0,3.62-3.62V3.62A3.62,3.62,0,0,0,30.14,0Z"/></svg>