<svg id="logo-texto" data-name="Capa 1" width="30" height="26" viewBox="0 0 30 26" fill="none" xmlns="http://www.w3.org/2000/svg"><path d="M14.855 0C6.65058 0 0 5.40276 0 12.0697C0.0211825 13.4899 0.324569 14.8918 0.892509 16.1937C1.46045 17.4956 2.28161 18.6715 3.30821 19.6532C2.66777 21.717 1.58207 23.6151 0.127753 25.2134C0.0649099 25.2795 0.0230513 25.3628 0.00745395 25.4527C-0.00814334 25.5425 0.00321898 25.635 0.0401085 25.7185C0.07494 25.8018 0.133816 25.8729 0.209222 25.9226C0.284628 25.9724 0.373145 25.9985 0.463476 25.9977C3.4387 25.9451 6.3099 24.8941 8.6159 23.0134C10.6109 23.7612 12.7245 24.1427 14.855 24.1394C23.0594 24.1394 29.71 18.7366 29.71 12.0697C29.71 5.40276 23.0594 0 14.855 0ZM7.4275 13.9266C7.06024 13.9266 6.70124 13.8177 6.39588 13.6136C6.09051 13.4096 5.85251 13.1196 5.71197 12.7803C5.57143 12.441 5.53466 12.0676 5.6063 11.7074C5.67795 11.3472 5.8548 11.0164 6.11449 10.7567C6.37418 10.497 6.70504 10.3201 7.06524 10.2485C7.42544 10.1768 7.7988 10.2136 8.1381 10.3542C8.4774 10.4947 8.7674 10.7327 8.97144 11.0381C9.17547 11.3434 9.28438 11.7024 9.28438 12.0697C9.28457 12.3136 9.23667 12.5551 9.14343 12.7805C9.05018 13.0059 8.91341 13.2107 8.74094 13.3831C8.56848 13.5556 8.3637 13.6924 8.13833 13.7856C7.91295 13.8789 7.6714 13.9268 7.4275 13.9266ZM14.855 13.9266C14.4877 13.9266 14.1287 13.8177 13.8234 13.6136C13.518 13.4096 13.28 13.1196 13.1395 12.7803C12.9989 12.441 12.9622 12.0676 13.0338 11.7074C13.1055 11.3472 13.2823 11.0164 13.542 10.7567C13.8017 10.497 14.1325 10.3201 14.4927 10.2485C14.8529 10.1768 15.2263 10.2136 15.5656 10.3542C15.9049 10.4947 16.1949 10.7327 16.3989 11.0381C16.603 11.3434 16.7119 11.7024 16.7119 12.0697C16.7121 12.3136 16.6642 12.5551 16.5709 12.7805C16.4777 13.0059 16.3409 13.2107 16.1684 13.3831C15.996 13.5556 15.7912 13.6924 15.5658 13.7856C15.3405 13.8789 15.0989 13.9268 14.855 13.9266ZM22.2825 13.9266C21.9152 13.9266 21.5562 13.8177 21.2509 13.6136C20.9455 13.4096 20.7075 13.1196 20.567 12.7803C20.4264 12.441 20.3897 12.0676 20.4613 11.7074C20.533 11.3472 20.7098 11.0164 20.9695 10.7567C21.2292 10.497 21.56 10.3201 21.9202 10.2485C22.2804 10.1768 22.6538 10.2136 22.9931 10.3542C23.3324 10.4947 23.6224 10.7327 23.8264 11.0381C24.0305 11.3434 24.1394 11.7024 24.1394 12.0697C24.1396 12.3136 24.0917 12.5551 23.9984 12.7805C23.9052 13.0059 23.7684 13.2107 23.5959 13.3831C23.4235 13.5556 23.2187 13.6924 22.9933 13.7856C22.768 13.8789 22.5264 13.9268 22.2825 13.9266Z" fill="white"/></svg>