<svg id="mpa-twitter" data-name="Capa 1" xmlns="http://www.w3.org/2000/svg" viewBox="0 0 38.58 31.34"><path id="Icon_awesome-twitter-2" data-name="Icon awesome-twitter-2" style="fill:currentColor;" d="M34.62,7.81c0,.34,0,.68,0,1,0,10.45-8,22.5-22.5,22.5A22.43,22.43,0,0,1,0,27.79a17.33,17.33,0,0,0,1.91.1,15.94,15.94,0,0,0,9.82-3.38A7.94,7.94,0,0,1,4.33,19a9.48,9.48,0,0,0,1.5.12,8.13,8.13,0,0,0,2.08-.27,7.9,7.9,0,0,1-6.34-7.76V11a8,8,0,0,0,3.57,1A7.92,7.92,0,0,1,2.69,1.44,22.47,22.47,0,0,0,19,9.72a8.51,8.51,0,0,1-.2-1.81A7.92,7.92,0,0,1,32.49,2.5a15.65,15.65,0,0,0,5-1.91A7.9,7.9,0,0,1,34,4.94a15.63,15.63,0,0,0,4.56-1.22A16.91,16.91,0,0,1,34.62,7.81Z"/></svg>