<svg id="nav-home" data-name="Capa 1" xmlns="http://www.w3.org/2000/svg" viewBox="0 0 25 14.23"><path d="M14.13,5.72,8.5,19.16c-.12.27,0,.45.35.45H11.5a.51.51,0,0,0,.52-.33L17.73,5.84a.28.28,0,0,0,0-.13h0c0-.19-.13-.31-.38-.31h-2.7a.49.49,0,0,0-.52.33" transform="translate(0 -5.38)" style="fill:currentColor"/><path d="M6.93,5.72,1.29,19.16c-.11.27,0,.45.35.45H4.3a.51.51,0,0,0,.52-.33l5.7-13.44V5.71h0c.06-.2-.09-.32-.36-.32H7.45a.48.48,0,0,0-.52.33" transform="translate(0 -5.38)" style="fill:currentColor"/><path d="M3.28,5.71h0c0-.2-.13-.32-.38-.32H.46A.45.45,0,0,0,0,5.84H0v7.68L3.24,5.84V5.71" transform="translate(0 -5.38)" style="fill:currentColor"/><path d="M21.41,5.72,15.77,19.16c-.12.27,0,.45.35.45h2.65a.51.51,0,0,0,.52-.33L25,5.84V5.71h0c0-.19-.13-.31-.39-.31H21.93a.48.48,0,0,0-.52.33" transform="translate(0 -5.38)" style="fill:currentColor"/></svg>