<svg id="mpa-instagram-nuevo" data-name="Capa 1" viewBox="0 0 19 18" fill="none" xmlns="http://www.w3.org/2000/svg"><path d="M9.02941 4.3824C8.11359 4.3824 7.21834 4.65324 6.45686 5.16067C5.69538 5.6681 5.10189 6.38933 4.75142 7.23316C4.40095 8.07699 4.30925 9.00551 4.48792 9.90132C4.66658 10.7971 5.10759 11.62 5.75518 12.2658C6.40276 12.9116 7.22783 13.3515 8.12605 13.5297C9.02427 13.7078 9.95531 13.6164 10.8014 13.2669C11.6475 12.9173 12.3707 12.3254 12.8795 11.566C13.3883 10.8066 13.6599 9.91374 13.6599 9.00039C13.6611 8.3936 13.5422 7.79254 13.3099 7.2317C13.0777 6.67086 12.7366 6.16128 12.3064 5.73222C11.8762 5.30315 11.3652 4.96304 10.8029 4.7314C10.2405 4.49976 9.63784 4.38116 9.02941 4.3824ZM9.02941 11.999C8.43428 11.999 7.85252 11.823 7.35769 11.4932C6.86286 11.1635 6.47719 10.6948 6.24944 10.1464C6.02169 9.5981 5.96211 8.99471 6.07821 8.41259C6.19431 7.83047 6.48089 7.29576 6.90171 6.87608C7.32253 6.45639 7.85869 6.17058 8.44238 6.05479C9.02607 5.939 9.63109 5.99843 10.1809 6.22556C10.7307 6.45269 11.2007 6.83733 11.5313 7.33082C11.862 7.82432 12.0384 8.40452 12.0384 8.99804C12.0368 9.79335 11.7192 10.5556 11.1552 11.1179C10.5913 11.6802 9.82687 11.9967 9.02941 11.9982V11.999ZM14.9258 4.19376C14.9258 4.40662 14.8625 4.6147 14.7439 4.79168C14.6254 4.96867 14.4568 5.10661 14.2596 5.18807C14.0624 5.26953 13.8455 5.29084 13.6361 5.24931C13.4268 5.20779 13.2345 5.10529 13.0836 4.95477C12.9327 4.80426 12.8299 4.61249 12.7883 4.40373C12.7466 4.19496 12.768 3.97856 12.8497 3.78191C12.9314 3.58525 13.0697 3.41717 13.2471 3.29891C13.4246 3.18066 13.6332 3.11754 13.8467 3.11754C13.9885 3.11723 14.1289 3.14485 14.26 3.19883C14.3911 3.25281 14.5102 3.33207 14.6104 3.43207C14.7107 3.53206 14.7902 3.65083 14.8443 3.78154C14.8984 3.91226 14.9261 4.05234 14.9258 4.19376ZM17.9913 5.28956C18.021 3.89004 17.4972 2.53511 16.5331 1.51768C15.5109 0.559413 14.1537 0.0375286 12.751 0.0633996C11.2599 -0.0211332 6.79344 -0.0211332 5.30385 0.0633996C3.90189 0.03446 2.5442 0.553599 1.52099 1.50985C0.558838 2.52841 0.035572 3.88265 0.0635708 5.28173C-0.0211903 6.76888 -0.0211903 11.2233 0.0635708 12.7089C0.0332968 14.1088 0.556854 15.4644 1.52099 16.4823C2.54358 17.4399 3.90055 17.9617 5.30306 17.9366C6.79423 18.0211 11.2607 18.0211 12.7503 17.9366C14.1538 17.9664 15.5127 17.444 16.5331 16.4823C17.494 15.4629 18.0173 14.1093 17.9913 12.7104C18.0761 11.2233 18.0761 6.77358 17.9913 5.28721V5.28956ZM16.0662 14.304C15.9127 14.6908 15.6813 15.042 15.3862 15.336C15.091 15.6299 14.7386 15.8602 14.3505 16.0127C13.1623 16.4823 10.3424 16.3743 9.02941 16.3743C7.7164 16.3743 4.8926 16.4823 3.7083 16.0127C3.32004 15.8599 2.96741 15.6292 2.67229 15.3349C2.37716 15.0406 2.14584 14.6889 1.99267 14.3017C1.52178 13.1167 1.63008 10.3044 1.63008 8.99491C1.63008 7.68544 1.5257 4.86924 1.99267 3.68813C2.14619 3.3015 2.37768 2.95043 2.67279 2.65665C2.9679 2.36288 3.32034 2.13266 3.7083 1.98026C4.89652 1.51063 7.7164 1.61865 9.02941 1.61865C10.3424 1.61865 13.1662 1.51455 14.3505 1.98026C14.7388 2.13301 15.0914 2.36371 15.3865 2.65804C15.6817 2.95237 15.913 3.30406 16.0662 3.69126C16.537 4.87629 16.4287 7.68857 16.4287 8.99804C16.4287 10.3075 16.537 13.1229 16.0662 14.304Z" fill="white"/></svg>