<svg width="20" height="20" id="mpa-descuento" viewBox="0 0 57 57" fill="none" xmlns="http://www.w3.org/2000/svg"><g clip-path="url(#clip0_230:3484)"><path d="M19.1208 19.1213C19.5403 18.7017 19.826 18.1672 19.9418 17.5852C20.0575 17.0033 19.9981 16.4001 19.771 15.8519C19.544 15.3038 19.1595 14.8352 18.6661 14.5056C18.1728 14.176 17.5928 14 16.9995 14C16.4061 14 15.8261 14.176 15.3328 14.5056C14.8395 14.8352 14.4549 15.3038 14.2279 15.8519C14.0008 16.4001 13.9414 17.0033 14.0571 17.5852C14.1729 18.1672 14.4586 18.7017 14.8781 19.1213C15.4408 19.6838 16.2038 19.9999 16.9995 19.9999C17.7951 19.9999 18.5581 19.6838 19.1208 19.1213ZM31.1207 26.8787C30.7012 26.4592 30.1666 26.1735 29.5847 26.0577C29.0028 25.942 28.3996 26.0014 27.8514 26.2285C27.3033 26.4555 26.8347 26.84 26.5051 27.3334C26.1755 27.8267 25.9995 28.4068 25.9995 29.0001C25.9995 29.5934 26.1755 30.1734 26.5051 30.6668C26.8347 31.1601 27.3033 31.5447 27.8514 31.7717C28.3996 31.9988 29.0028 32.0582 29.5847 31.9425C30.1666 31.8267 30.7012 31.541 31.1207 31.1215C31.6833 30.5588 31.9993 29.7957 31.9993 29.0001C31.9993 28.2044 31.6833 27.4414 31.1207 26.8787ZM31.0297 16.0303L29.9687 14.9699C29.8295 14.8306 29.6641 14.7201 29.4822 14.6447C29.3002 14.5693 29.1051 14.5305 28.9082 14.5305C28.7112 14.5305 28.5161 14.5693 28.3342 14.6447C28.1522 14.7201 27.9869 14.8306 27.8476 14.9699L14.9695 27.8491C14.8301 27.9883 14.7196 28.1537 14.6442 28.3357C14.5688 28.5176 14.53 28.7127 14.53 28.9097C14.53 29.1066 14.5688 29.3017 14.6442 29.4836C14.7196 29.6656 14.8301 29.831 14.9695 29.9702L16.0298 31.0306C16.1691 31.1699 16.3344 31.2804 16.5164 31.3558C16.6984 31.4312 16.8934 31.4701 17.0904 31.4701C17.2874 31.4701 17.4824 31.4312 17.6644 31.3558C17.8463 31.2804 18.0117 31.1699 18.1509 31.0306L31.0297 18.1516C31.1691 18.0123 31.2796 17.847 31.355 17.665C31.4304 17.483 31.4692 17.2879 31.4692 17.0909C31.4692 16.8939 31.4304 16.6989 31.355 16.5169C31.2796 16.3349 31.1691 16.1695 31.0297 16.0303Z" fill="#007AB8"/></g><defs><clipPath id="clip0_230:3484"><rect width="18" height="18" fill="white" transform="translate(14 14)"/></clipPath></defs></svg>