<svg width="20" height="20" id="mpa-camion" viewBox="0 0 53 55" fill="none" xmlns="http://www.w3.org/2000/svg"><path d="M31.563 17.75H28V13H11.375C10.7457 13.0018 10.1427 13.2527 9.69766 13.6977C9.25266 14.1427 9.00185 14.7457 9 15.375V28.438H11.375C11.3907 29.3725 11.7729 30.2634 12.4393 30.9187C13.1057 31.5741 14.0029 31.9413 14.9375 31.9413C15.8721 31.9413 16.7693 31.5741 17.4357 30.9187C18.1021 30.2634 18.4843 29.3725 18.5 28.438H25.625C25.6407 29.3725 26.0229 30.2634 26.6893 30.9187C27.3557 31.5741 28.2529 31.9413 29.1875 31.9413C30.1221 31.9413 31.0193 31.5741 31.6857 30.9187C32.3521 30.2634 32.7343 29.3725 32.75 28.438H35.125V22.5L31.563 17.75ZM14.938 30.219C14.5858 30.219 14.2414 30.1145 13.9485 29.9188C13.6556 29.7231 13.4274 29.445 13.2926 29.1196C13.1578 28.7941 13.1225 28.436 13.1912 28.0905C13.2599 27.7451 13.4296 27.4277 13.6786 27.1786C13.9277 26.9296 14.2451 26.7599 14.5905 26.6912C14.936 26.6225 15.2941 26.6578 15.6196 26.7926C15.945 26.9274 16.2231 27.1556 16.4188 27.4485C16.6145 27.7414 16.719 28.0858 16.719 28.438C16.7193 28.672 16.6734 28.9037 16.584 29.1199C16.4946 29.3361 16.3634 29.5325 16.1979 29.6979C16.0325 29.8634 15.8361 29.9946 15.6199 30.084C15.4037 30.1734 15.172 30.2193 14.938 30.219ZM30.969 19.531L33.3 22.5H28V19.531H30.969ZM29.188 30.219C28.8358 30.219 28.4914 30.1145 28.1985 29.9188C27.9056 29.7231 27.6774 29.445 27.5426 29.1196C27.4078 28.7941 27.3725 28.436 27.4412 28.0905C27.5099 27.7451 27.6796 27.4277 27.9286 27.1786C28.1777 26.9296 28.4951 26.7599 28.8405 26.6912C29.186 26.6225 29.5441 26.6578 29.8696 26.7926C30.195 26.9274 30.4731 27.1556 30.6688 27.4485C30.8645 27.7414 30.969 28.0858 30.969 28.438C30.9693 28.672 30.9234 28.9037 30.834 29.1199C30.7446 29.3361 30.6134 29.5325 30.4479 29.6979C30.2825 29.8634 30.0861 29.9946 29.8699 30.084C29.6537 30.1734 29.422 30.2193 29.188 30.219Z" fill="#007AB8"/></svg>