<svg id="mpa-card" data-name="Capa 1" xmlns="http://www.w3.org/2000/svg" viewBox="0 0 26.08 17.08"><path id="Icon_payment-credit-card" data-name="Icon payment-credit-card" style="fill:#007AB8;" d="M24.29,0a1.86,1.86,0,0,1,1.79,1.79v13.5a1.85,1.85,0,0,1-1.79,1.79H1.79a1.62,1.62,0,0,1-1.25-.54A1.64,1.64,0,0,1,0,15.29V1.79A1.66,1.66,0,0,1,.54.54,1.66,1.66,0,0,1,1.79,0ZM1.79,1.42c-.14,0-.22,0-.25.12a.38.38,0,0,0-.13.25v2.5H24.66V1.79a.37.37,0,0,0-.12-.25c0-.08-.11-.12-.25-.12Zm22.5,14.25c.14,0,.22-.05.25-.13a.33.33,0,0,0,.12-.25V8.54H1.42v6.75a.33.33,0,0,0,.12.25c0,.08.11.13.25.13ZM2.83,14.25V12.79H5.71v1.46Zm4.29,0V12.79h4.26v1.46Z"/></svg>